999
DXF created from <program name>
0
SECTION
2
HEADER
9
$ACADVER
1
AC1006
9
$INSBASE
10
0.0
20
0.0
30
0.0
9
$EXTMIN
10
-100000.0
20
-100000.0
30
-100000.0
9
$EXTMAX
10
10000000000.0
20
10000000000.0
30
10000000000.0
0
ENDSEC
0
SECTION
2
ENTITIES
0
3DFACE
8
0
10
-1
20
3
30
4
11
1
21
3
31
4
12
-1
22
3
32
2
13
1
23
3
33
2
0
3DFACE
8
0
10
-1
20
1
30
4
11
1
21
1
31
4
12
-1
22
3
32
4
13
1
23
3
33
4
0
3DFACE
8
0
10
-1
20
1
30
2
11
1
21
1
31
2
12
-1
22
3
32
2
13
1
23
3
33
2
0
3DFACE
8
0
10
-1
20
3
30
4
11
-1
21
1
31
4
12
-1
22
3
32
2
13
-1
23
1
33
2
0
3DFACE
8
0
10
1
20
3
30
4
11
1
21
1
31
4
12
1
22
3
32
2
13
1
23
1
33
2
0
3DFACE
8
0
10
-1
20
1
30
4
11
1
21
1
31
4
12
-1
22
1
32
2
13
1
23
1
33
2
0
3DFACE
8
0
10
-4
20
2
30
-3
11
-2
21
2
31
-3
12
-4
22
2
32
-5
13
-2
23
2
33
-5
0
3DFACE
8
0
10
-4
20
0
30
-3
11
-2
21
0
31
-3
12
-4
22
2
32
-3
13
-2
23
2
33
-3
0
3DFACE
8
0
10
-4
20
0
30
-5
11
-2
21
0
31
-5
12
-4
22
2
32
-5
13
-2
23
2
33
-5
0
3DFACE
8
0
10
-4
20
2
30
-3
11
-4
21
0
31
-3
12
-4
22
2
32
-5
13
-4
23
0
33
-5
0
3DFACE
8
0
10
-2
20
2
30
-3
11
-2
21
0
31
-3
12
-2
22
2
32
-5
13
-2
23
0
33
-5
0
3DFACE
8
0
10
-4
20
0
30
-3
11
-2
21
0
31
-3
12
-4
22
0
32
-5
13
-2
23
0
33
-5
0
3DFACE
8
0
10
-4
20
3
30
-3
11
-2
21
3
31
-3
12
-4
22
3
32
-5
13
-2
23
3
33
-5
0
3DFACE
8
0
10
-4
20
1
30
-3
11
-2
21
1
31
-3
12
-4
22
3
32
-3
13
-2
23
3
33
-3
0
3DFACE
8
0
10
-4
20
1
30
-5
11
-2
21
1
31
-5
12
-4
22
3
32
-5
13
-2
23
3
33
-5
0
3DFACE
8
0
10
-4
20
3
30
-3
11
-4
21
1
31
-3
12
-4
22
3
32
-5
13
-4
23
1
33
-5
0
3DFACE
8
0
10
-2
20
3
30
-3
11
-2
21
1
31
-3
12
-2
22
3
32
-5
13
-2
23
1
33
-5
0
3DFACE
8
0
10
-4
20
1
30
-3
11
-2
21
1
31
-3
12
-4
22
1
32
-5
13
-2
23
1
33
-5
0
3DFACE
8
0
10
-4
20
4
30
-3
11
-2
21
4
31
-3
12
-4
22
4
32
-5
13
-2
23
4
33
-5
0
3DFACE
8
0
10
-4
20
2
30
-3
11
-2
21
2
31
-3
12
-4
22
4
32
-3
13
-2
23
4
33
-3
0
3DFACE
8
0
10
-4
20
2
30
-5
11
-2
21
2
31
-5
12
-4
22
4
32
-5
13
-2
23
4
33
-5
0
3DFACE
8
0
10
-4
20
4
30
-3
11
-4
21
2
31
-3
12
-4
22
4
32
-5
13
-4
23
2
33
-5
0
3DFACE
8
0
10
-2
20
4
30
-3
11
-2
21
2
31
-3
12
-2
22
4
32
-5
13
-2
23
2
33
-5
0
3DFACE
8
0
10
-4
20
2
30
-3
11
-2
21
2
31
-3
12
-4
22
2
32
-5
13
-2
23
2
33
-5
0
3DFACE
8
0
10
-4
20
5
30
-3
11
-2
21
5
31
-3
12
-4
22
5
32
-5
13
-2
23
5
33
-5
0
3DFACE
8
0
10
-4
20
3
30
-3
11
-2
21
3
31
-3
12
-4
22
5
32
-3
13
-2
23
5
33
-3
0
3DFACE
8
0
10
-4
20
3
30
-5
11
-2
21
3
31
-5
12
-4
22
5
32
-5
13
-2
23
5
33
-5
0
3DFACE
8
0
10
-4
20
5
30
-3
11
-4
21
3
31
-3
12
-4
22
5
32
-5
13
-4
23
3
33
-5
0
3DFACE
8
0
10
-2
20
5
30
-3
11
-2
21
3
31
-3
12
-2
22
5
32
-5
13
-2
23
3
33
-5
0
3DFACE
8
0
10
-4
20
3
30
-3
11
-2
21
3
31
-3
12
-4
22
3
32
-5
13
-2
23
3
33
-5
0
3DFACE
8
0
10
-3
20
2
30
-3
11
-1
21
2
31
-3
12
-3
22
2
32
-5
13
-1
23
2
33
-5
0
3DFACE
8
0
10
-3
20
0
30
-3
11
-1
21
0
31
-3
12
-3
22
2
32
-3
13
-1
23
2
33
-3
0
3DFACE
8
0
10
-3
20
0
30
-5
11
-1
21
0
31
-5
12
-3
22
2
32
-5
13
-1
23
2
33
-5
0
3DFACE
8
0
10
-3
20
2
30
-3
11
-3
21
0
31
-3
12
-3
22
2
32
-5
13
-3
23
0
33
-5
0
3DFACE
8
0
10
-1
20
2
30
-3
11
-1
21
0
31
-3
12
-1
22
2
32
-5
13
-1
23
0
33
-5
0
3DFACE
8
0
10
-3
20
0
30
-3
11
-1
21
0
31
-3
12
-3
22
0
32
-5
13
-1
23
0
33
-5
0
3DFACE
8
0
10
-3
20
3
30
-3
11
-1
21
3
31
-3
12
-3
22
3
32
-5
13
-1
23
3
33
-5
0
3DFACE
8
0
10
-3
20
1
30
-3
11
-1
21
1
31
-3
12
-3
22
3
32
-3
13
-1
23
3
33
-3
0
3DFACE
8
0
10
-3
20
1
30
-5
11
-1
21
1
31
-5
12
-3
22
3
32
-5
13
-1
23
3
33
-5
0
3DFACE
8
0
10
-3
20
3
30
-3
11
-3
21
1
31
-3
12
-3
22
3
32
-5
13
-3
23
1
33
-5
0
3DFACE
8
0
10
-1
20
3
30
-3
11
-1
21
1
31
-3
12
-1
22
3
32
-5
13
-1
23
1
33
-5
0
3DFACE
8
0
10
-3
20
1
30
-3
11
-1
21
1
31
-3
12
-3
22
1
32
-5
13
-1
23
1
33
-5
0
3DFACE
8
0
10
-3
20
4
30
-3
11
-1
21
4
31
-3
12
-3
22
4
32
-5
13
-1
23
4
33
-5
0
3DFACE
8
0
10
-3
20
2
30
-3
11
-1
21
2
31
-3
12
-3
22
4
32
-3
13
-1
23
4
33
-3
0
3DFACE
8
0
10
-3
20
2
30
-5
11
-1
21
2
31
-5
12
-3
22
4
32
-5
13
-1
23
4
33
-5
0
3DFACE
8
0
10
-3
20
4
30
-3
11
-3
21
2
31
-3
12
-3
22
4
32
-5
13
-3
23
2
33
-5
0
3DFACE
8
0
10
-1
20
4
30
-3
11
-1
21
2
31
-3
12
-1
22
4
32
-5
13
-1
23
2
33
-5
0
3DFACE
8
0
10
-3
20
2
30
-3
11
-1
21
2
31
-3
12
-3
22
2
32
-5
13
-1
23
2
33
-5
0
3DFACE
8
0
10
-3
20
5
30
-3
11
-1
21
5
31
-3
12
-3
22
5
32
-5
13
-1
23
5
33
-5
0
3DFACE
8
0
10
-3
20
3
30
-3
11
-1
21
3
31
-3
12
-3
22
5
32
-3
13
-1
23
5
33
-3
0
3DFACE
8
0
10
-3
20
3
30
-5
11
-1
21
3
31
-5
12
-3
22
5
32
-5
13
-1
23
5
33
-5
0
3DFACE
8
0
10
-3
20
5
30
-3
11
-3
21
3
31
-3
12
-3
22
5
32
-5
13
-3
23
3
33
-5
0
3DFACE
8
0
10
-1
20
5
30
-3
11
-1
21
3
31
-3
12
-1
22
5
32
-5
13
-1
23
3
33
-5
0
3DFACE
8
0
10
-3
20
3
30
-3
11
-1
21
3
31
-3
12
-3
22
3
32
-5
13
-1
23
3
33
-5
0
3DFACE
8
0
10
1
20
2
30
-3
11
3
21
2
31
-3
12
1
22
2
32
-5
13
3
23
2
33
-5
0
3DFACE
8
0
10
1
20
0
30
-3
11
3
21
0
31
-3
12
1
22
2
32
-3
13
3
23
2
33
-3
0
3DFACE
8
0
10
1
20
0
30
-5
11
3
21
0
31
-5
12
1
22
2
32
-5
13
3
23
2
33
-5
0
3DFACE
8
0
10
1
20
2
30
-3
11
1
21
0
31
-3
12
1
22
2
32
-5
13
1
23
0
33
-5
0
3DFACE
8
0
10
3
20
2
30
-3
11
3
21
0
31
-3
12
3
22
2
32
-5
13
3
23
0
33
-5
0
3DFACE
8
0
10
1
20
0
30
-3
11
3
21
0
31
-3
12
1
22
0
32
-5
13
3
23
0
33
-5
0
3DFACE
8
0
10
1
20
3
30
-3
11
3
21
3
31
-3
12
1
22
3
32
-5
13
3
23
3
33
-5
0
3DFACE
8
0
10
1
20
1
30
-3
11
3
21
1
31
-3
12
1
22
3
32
-3
13
3
23
3
33
-3
0
3DFACE
8
0
10
1
20
1
30
-5
11
3
21
1
31
-5
12
1
22
3
32
-5
13
3
23
3
33
-5
0
3DFACE
8
0
10
1
20
3
30
-3
11
1
21
1
31
-3
12
1
22
3
32
-5
13
1
23
1
33
-5
0
3DFACE
8
0
10
3
20
3
30
-3
11
3
21
1
31
-3
12
3
22
3
32
-5
13
3
23
1
33
-5
0
3DFACE
8
0
10
1
20
1
30
-3
11
3
21
1
31
-3
12
1
22
1
32
-5
13
3
23
1
33
-5
0
3DFACE
8
0
10
1
20
4
30
-3
11
3
21
4
31
-3
12
1
22
4
32
-5
13
3
23
4
33
-5
0
3DFACE
8
0
10
1
20
2
30
-3
11
3
21
2
31
-3
12
1
22
4
32
-3
13
3
23
4
33
-3
0
3DFACE
8
0
10
1
20
2
30
-5
11
3
21
2
31
-5
12
1
22
4
32
-5
13
3
23
4
33
-5
0
3DFACE
8
0
10
1
20
4
30
-3
11
1
21
2
31
-3
12
1
22
4
32
-5
13
1
23
2
33
-5
0
3DFACE
8
0
10
3
20
4
30
-3
11
3
21
2
31
-3
12
3
22
4
32
-5
13
3
23
2
33
-5
0
3DFACE
8
0
10
1
20
2
30
-3
11
3
21
2
31
-3
12
1
22
2
32
-5
13
3
23
2
33
-5
0
3DFACE
8
0
10
1
20
5
30
-3
11
3
21
5
31
-3
12
1
22
5
32
-5
13
3
23
5
33
-5
0
3DFACE
8
0
10
1
20
3
30
-3
11
3
21
3
31
-3
12
1
22
5
32
-3
13
3
23
5
33
-3
0
3DFACE
8
0
10
1
20
3
30
-5
11
3
21
3
31
-5
12
1
22
5
32
-5
13
3
23
5
33
-5
0
3DFACE
8
0
10
1
20
5
30
-3
11
1
21
3
31
-3
12
1
22
5
32
-5
13
1
23
3
33
-5
0
3DFACE
8
0
10
3
20
5
30
-3
11
3
21
3
31
-3
12
3
22
5
32
-5
13
3
23
3
33
-5
0
3DFACE
8
0
10
1
20
3
30
-3
11
3
21
3
31
-3
12
1
22
3
32
-5
13
3
23
3
33
-5
0
3DFACE
8
0
10
2
20
2
30
-3
11
4
21
2
31
-3
12
2
22
2
32
-5
13
4
23
2
33
-5
0
3DFACE
8
0
10
2
20
0
30
-3
11
4
21
0
31
-3
12
2
22
2
32
-3
13
4
23
2
33
-3
0
3DFACE
8
0
10
2
20
0
30
-5
11
4
21
0
31
-5
12
2
22
2
32
-5
13
4
23
2
33
-5
0
3DFACE
8
0
10
2
20
2
30
-3
11
2
21
0
31
-3
12
2
22
2
32
-5
13
2
23
0
33
-5
0
3DFACE
8
0
10
4
20
2
30
-3
11
4
21
0
31
-3
12
4
22
2
32
-5
13
4
23
0
33
-5
0
3DFACE
8
0
10
2
20
0
30
-3
11
4
21
0
31
-3
12
2
22
0
32
-5
13
4
23
0
33
-5
0
3DFACE
8
0
10
2
20
3
30
-3
11
4
21
3
31
-3
12
2
22
3
32
-5
13
4
23
3
33
-5
0
3DFACE
8
0
10
2
20
1
30
-3
11
4
21
1
31
-3
12
2
22
3
32
-3
13
4
23
3
33
-3
0
3DFACE
8
0
10
2
20
1
30
-5
11
4
21
1
31
-5
12
2
22
3
32
-5
13
4
23
3
33
-5
0
3DFACE
8
0
10
2
20
3
30
-3
11
2
21
1
31
-3
12
2
22
3
32
-5
13
2
23
1
33
-5
0
3DFACE
8
0
10
4
20
3
30
-3
11
4
21
1
31
-3
12
4
22
3
32
-5
13
4
23
1
33
-5
0
3DFACE
8
0
10
2
20
1
30
-3
11
4
21
1
31
-3
12
2
22
1
32
-5
13
4
23
1
33
-5
0
3DFACE
8
0
10
2
20
4
30
-3
11
4
21
4
31
-3
12
2
22
4
32
-5
13
4
23
4
33
-5
0
3DFACE
8
0
10
2
20
2
30
-3
11
4
21
2
31
-3
12
2
22
4
32
-3
13
4
23
4
33
-3
0
3DFACE
8
0
10
2
20
2
30
-5
11
4
21
2
31
-5
12
2
22
4
32
-5
13
4
23
4
33
-5
0
3DFACE
8
0
10
2
20
4
30
-3
11
2
21
2
31
-3
12
2
22
4
32
-5
13
2
23
2
33
-5
0
3DFACE
8
0
10
4
20
4
30
-3
11
4
21
2
31
-3
12
4
22
4
32
-5
13
4
23
2
33
-5
0
3DFACE
8
0
10
2
20
2
30
-3
11
4
21
2
31
-3
12
2
22
2
32
-5
13
4
23
2
33
-5
0
3DFACE
8
0
10
2
20
5
30
-3
11
4
21
5
31
-3
12
2
22
5
32
-5
13
4
23
5
33
-5
0
3DFACE
8
0
10
2
20
3
30
-3
11
4
21
3
31
-3
12
2
22
5
32
-3
13
4
23
5
33
-3
0
3DFACE
8
0
10
2
20
3
30
-5
11
4
21
3
31
-5
12
2
22
5
32
-5
13
4
23
5
33
-5
0
3DFACE
8
0
10
2
20
5
30
-3
11
2
21
3
31
-3
12
2
22
5
32
-5
13
2
23
3
33
-5
0
3DFACE
8
0
10
4
20
5
30
-3
11
4
21
3
31
-3
12
4
22
5
32
-5
13
4
23
3
33
-5
0
3DFACE
8
0
10
2
20
3
30
-3
11
4
21
3
31
-3
12
2
22
3
32
-5
13
4
23
3
33
-5
0
3DFACE
8
0
10
-4
20
2
30
-2
11
-2
21
2
31
-2
12
-4
22
2
32
-4
13
-2
23
2
33
-4
0
3DFACE
8
0
10
-4
20
0
30
-2
11
-2
21
0
31
-2
12
-4
22
2
32
-2
13
-2
23
2
33
-2
0
3DFACE
8
0
10
-4
20
0
30
-4
11
-2
21
0
31
-4
12
-4
22
2
32
-4
13
-2
23
2
33
-4
0
3DFACE
8
0
10
-4
20
2
30
-2
11
-4
21
0
31
-2
12
-4
22
2
32
-4
13
-4
23
0
33
-4
0
3DFACE
8
0
10
-2
20
2
30
-2
11
-2
21
0
31
-2
12
-2
22
2
32
-4
13
-2
23
0
33
-4
0
3DFACE
8
0
10
-4
20
0
30
-2
11
-2
21
0
31
-2
12
-4
22
0
32
-4
13
-2
23
0
33
-4
0
3DFACE
8
0
10
-4
20
2
30
-1
11
-2
21
2
31
-1
12
-4
22
2
32
-3
13
-2
23
2
33
-3
0
3DFACE
8
0
10
-4
20
0
30
-1
11
-2
21
0
31
-1
12
-4
22
2
32
-1
13
-2
23
2
33
-1
0
3DFACE
8
0
10
-4
20
0
30
-3
11
-2
21
0
31
-3
12
-4
22
2
32
-3
13
-2
23
2
33
-3
0
3DFACE
8
0
10
-4
20
2
30
-1
11
-4
21
0
31
-1
12
-4
22
2
32
-3
13
-4
23
0
33
-3
0
3DFACE
8
0
10
-2
20
2
30
-1
11
-2
21
0
31
-1
12
-2
22
2
32
-3
13
-2
23
0
33
-3
0
3DFACE
8
0
10
-4
20
0
30
-1
11
-2
21
0
31
-1
12
-4
22
0
32
-3
13
-2
23
0
33
-3
0
3DFACE
8
0
10
-4
20
2
30
0
11
-2
21
2
31
0
12
-4
22
2
32
-2
13
-2
23
2
33
-2
0
3DFACE
8
0
10
-4
20
0
30
0
11
-2
21
0
31
0
12
-4
22
2
32
0
13
-2
23
2
33
0
0
3DFACE
8
0
10
-4
20
0
30
-2
11
-2
21
0
31
-2
12
-4
22
2
32
-2
13
-2
23
2
33
-2
0
3DFACE
8
0
10
-4
20
2
30
0
11
-4
21
0
31
0
12
-4
22
2
32
-2
13
-4
23
0
33
-2
0
3DFACE
8
0
10
-2
20
2
30
0
11
-2
21
0
31
0
12
-2
22
2
32
-2
13
-2
23
0
33
-2
0
3DFACE
8
0
10
-4
20
0
30
0
11
-2
21
0
31
0
12
-4
22
0
32
-2
13
-2
23
0
33
-2
0
3DFACE
8
0
10
-4
20
2
30
1
11
-2
21
2
31
1
12
-4
22
2
32
-1
13
-2
23
2
33
-1
0
3DFACE
8
0
10
-4
20
0
30
1
11
-2
21
0
31
1
12
-4
22
2
32
1
13
-2
23
2
33
1
0
3DFACE
8
0
10
-4
20
0
30
-1
11
-2
21
0
31
-1
12
-4
22
2
32
-1
13
-2
23
2
33
-1
0
3DFACE
8
0
10
-4
20
2
30
1
11
-4
21
0
31
1
12
-4
22
2
32
-1
13
-4
23
0
33
-1
0
3DFACE
8
0
10
-2
20
2
30
1
11
-2
21
0
31
1
12
-2
22
2
32
-1
13
-2
23
0
33
-1
0
3DFACE
8
0
10
-4
20
0
30
1
11
-2
21
0
31
1
12
-4
22
0
32
-1
13
-2
23
0
33
-1
0
3DFACE
8
0
10
-4
20
2
30
2
11
-2
21
2
31
2
12
-4
22
2
32
0
13
-2
23
2
33
0
0
3DFACE
8
0
10
-4
20
0
30
2
11
-2
21
0
31
2
12
-4
22
2
32
2
13
-2
23
2
33
2
0
3DFACE
8
0
10
-4
20
0
30
0
11
-2
21
0
31
0
12
-4
22
2
32
0
13
-2
23
2
33
0
0
3DFACE
8
0
10
-4
20
2
30
2
11
-4
21
0
31
2
12
-4
22
2
32
0
13
-4
23
0
33
0
0
3DFACE
8
0
10
-2
20
2
30
2
11
-2
21
0
31
2
12
-2
22
2
32
0
13
-2
23
0
33
0
0
3DFACE
8
0
10
-4
20
0
30
2
11
-2
21
0
31
2
12
-4
22
0
32
0
13
-2
23
0
33
0
0
3DFACE
8
0
10
-4
20
2
30
3
11
-2
21
2
31
3
12
-4
22
2
32
1
13
-2
23
2
33
1
0
3DFACE
8
0
10
-4
20
0
30
3
11
-2
21
0
31
3
12
-4
22
2
32
3
13
-2
23
2
33
3
0
3DFACE
8
0
10
-4
20
0
30
1
11
-2
21
0
31
1
12
-4
22
2
32
1
13
-2
23
2
33
1
0
3DFACE
8
0
10
-4
20
2
30
3
11
-4
21
0
31
3
12
-4
22
2
32
1
13
-4
23
0
33
1
0
3DFACE
8
0
10
-2
20
2
30
3
11
-2
21
0
31
3
12
-2
22
2
32
1
13
-2
23
0
33
1
0
3DFACE
8
0
10
-4
20
0
30
3
11
-2
21
0
31
3
12
-4
22
0
32
1
13
-2
23
0
33
1
0
3DFACE
8
0
10
-4
20
2
30
4
11
-2
21
2
31
4
12
-4
22
2
32
2
13
-2
23
2
33
2
0
3DFACE
8
0
10
-4
20
0
30
4
11
-2
21
0
31
4
12
-4
22
2
32
4
13
-2
23
2
33
4
0
3DFACE
8
0
10
-4
20
0
30
2
11
-2
21
0
31
2
12
-4
22
2
32
2
13
-2
23
2
33
2
0
3DFACE
8
0
10
-4
20
2
30
4
11
-4
21
0
31
4
12
-4
22
2
32
2
13
-4
23
0
33
2
0
3DFACE
8
0
10
-2
20
2
30
4
11
-2
21
0
31
4
12
-2
22
2
32
2
13
-2
23
0
33
2
0
3DFACE
8
0
10
-4
20
0
30
4
11
-2
21
0
31
4
12
-4
22
0
32
2
13
-2
23
0
33
2
0
3DFACE
8
0
10
-4
20
3
30
-2
11
-2
21
3
31
-2
12
-4
22
3
32
-4
13
-2
23
3
33
-4
0
3DFACE
8
0
10
-4
20
1
30
-2
11
-2
21
1
31
-2
12
-4
22
3
32
-2
13
-2
23
3
33
-2
0
3DFACE
8
0
10
-4
20
1
30
-4
11
-2
21
1
31
-4
12
-4
22
3
32
-4
13
-2
23
3
33
-4
0
3DFACE
8
0
10
-4
20
3
30
-2
11
-4
21
1
31
-2
12
-4
22
3
32
-4
13
-4
23
1
33
-4
0
3DFACE
8
0
10
-2
20
3
30
-2
11
-2
21
1
31
-2
12
-2
22
3
32
-4
13
-2
23
1
33
-4
0
3DFACE
8
0
10
-4
20
1
30
-2
11
-2
21
1
31
-2
12
-4
22
1
32
-4
13
-2
23
1
33
-4
0
3DFACE
8
0
10
-4
20
3
30
-1
11
-2
21
3
31
-1
12
-4
22
3
32
-3
13
-2
23
3
33
-3
0
3DFACE
8
0
10
-4
20
1
30
-1
11
-2
21
1
31
-1
12
-4
22
3
32
-1
13
-2
23
3
33
-1
0
3DFACE
8
0
10
-4
20
1
30
-3
11
-2
21
1
31
-3
12
-4
22
3
32
-3
13
-2
23
3
33
-3
0
3DFACE
8
0
10
-4
20
3
30
-1
11
-4
21
1
31
-1
12
-4
22
3
32
-3
13
-4
23
1
33
-3
0
3DFACE
8
0
10
-2
20
3
30
-1
11
-2
21
1
31
-1
12
-2
22
3
32
-3
13
-2
23
1
33
-3
0
3DFACE
8
0
10
-4
20
1
30
-1
11
-2
21
1
31
-1
12
-4
22
1
32
-3
13
-2
23
1
33
-3
0
3DFACE
8
0
10
-4
20
3
30
0
11
-2
21
3
31
0
12
-4
22
3
32
-2
13
-2
23
3
33
-2
0
3DFACE
8
0
10
-4
20
1
30
0
11
-2
21
1
31
0
12
-4
22
3
32
0
13
-2
23
3
33
0
0
3DFACE
8
0
10
-4
20
1
30
-2
11
-2
21
1
31
-2
12
-4
22
3
32
-2
13
-2
23
3
33
-2
0
3DFACE
8
0
10
-4
20
3
30
0
11
-4
21
1
31
0
12
-4
22
3
32
-2
13
-4
23
1
33
-2
0
3DFACE
8
0
10
-2
20
3
30
0
11
-2
21
1
31
0
12
-2
22
3
32
-2
13
-2
23
1
33
-2
0
3DFACE
8
0
10
-4
20
1
30
0
11
-2
21
1
31
0
12
-4
22
1
32
-2
13
-2
23
1
33
-2
0
3DFACE
8
0
10
-4
20
3
30
1
11
-2
21
3
31
1
12
-4
22
3
32
-1
13
-2
23
3
33
-1
0
3DFACE
8
0
10
-4
20
1
30
1
11
-2
21
1
31
1
12
-4
22
3
32
1
13
-2
23
3
33
1
0
3DFACE
8
0
10
-4
20
1
30
-1
11
-2
21
1
31
-1
12
-4
22
3
32
-1
13
-2
23
3
33
-1
0
3DFACE
8
0
10
-4
20
3
30
1
11
-4
21
1
31
1
12
-4
22
3
32
-1
13
-4
23
1
33
-1
0
3DFACE
8
0
10
-2
20
3
30
1
11
-2
21
1
31
1
12
-2
22
3
32
-1
13
-2
23
1
33
-1
0
3DFACE
8
0
10
-4
20
1
30
1
11
-2
21
1
31
1
12
-4
22
1
32
-1
13
-2
23
1
33
-1
0
3DFACE
8
0
10
-4
20
3
30
2
11
-2
21
3
31
2
12
-4
22
3
32
0
13
-2
23
3
33
0
0
3DFACE
8
0
10
-4
20
1
30
2
11
-2
21
1
31
2
12
-4
22
3
32
2
13
-2
23
3
33
2
0
3DFACE
8
0
10
-4
20
1
30
0
11
-2
21
1
31
0
12
-4
22
3
32
0
13
-2
23
3
33
0
0
3DFACE
8
0
10
-4
20
3
30
2
11
-4
21
1
31
2
12
-4
22
3
32
0
13
-4
23
1
33
0
0
3DFACE
8
0
10
-2
20
3
30
2
11
-2
21
1
31
2
12
-2
22
3
32
0
13
-2
23
1
33
0
0
3DFACE
8
0
10
-4
20
1
30
2
11
-2
21
1
31
2
12
-4
22
1
32
0
13
-2
23
1
33
0
0
3DFACE
8
0
10
-4
20
3
30
3
11
-2
21
3
31
3
12
-4
22
3
32
1
13
-2
23
3
33
1
0
3DFACE
8
0
10
-4
20
1
30
3
11
-2
21
1
31
3
12
-4
22
3
32
3
13
-2
23
3
33
3
0
3DFACE
8
0
10
-4
20
1
30
1
11
-2
21
1
31
1
12
-4
22
3
32
1
13
-2
23
3
33
1
0
3DFACE
8
0
10
-4
20
3
30
3
11
-4
21
1
31
3
12
-4
22
3
32
1
13
-4
23
1
33
1
0
3DFACE
8
0
10
-2
20
3
30
3
11
-2
21
1
31
3
12
-2
22
3
32
1
13
-2
23
1
33
1
0
3DFACE
8
0
10
-4
20
1
30
3
11
-2
21
1
31
3
12
-4
22
1
32
1
13
-2
23
1
33
1
0
3DFACE
8
0
10
-4
20
3
30
4
11
-2
21
3
31
4
12
-4
22
3
32
2
13
-2
23
3
33
2
0
3DFACE
8
0
10
-4
20
1
30
4
11
-2
21
1
31
4
12
-4
22
3
32
4
13
-2
23
3
33
4
0
3DFACE
8
0
10
-4
20
1
30
2
11
-2
21
1
31
2
12
-4
22
3
32
2
13
-2
23
3
33
2
0
3DFACE
8
0
10
-4
20
3
30
4
11
-4
21
1
31
4
12
-4
22
3
32
2
13
-4
23
1
33
2
0
3DFACE
8
0
10
-2
20
3
30
4
11
-2
21
1
31
4
12
-2
22
3
32
2
13
-2
23
1
33
2
0
3DFACE
8
0
10
-4
20
1
30
4
11
-2
21
1
31
4
12
-4
22
1
32
2
13
-2
23
1
33
2
0
3DFACE
8
0
10
-4
20
4
30
-2
11
-2
21
4
31
-2
12
-4
22
4
32
-4
13
-2
23
4
33
-4
0
3DFACE
8
0
10
-4
20
2
30
-2
11
-2
21
2
31
-2
12
-4
22
4
32
-2
13
-2
23
4
33
-2
0
3DFACE
8
0
10
-4
20
2
30
-4
11
-2
21
2
31
-4
12
-4
22
4
32
-4
13
-2
23
4
33
-4
0
3DFACE
8
0
10
-4
20
4
30
-2
11
-4
21
2
31
-2
12
-4
22
4
32
-4
13
-4
23
2
33
-4
0
3DFACE
8
0
10
-2
20
4
30
-2
11
-2
21
2
31
-2
12
-2
22
4
32
-4
13
-2
23
2
33
-4
0
3DFACE
8
0
10
-4
20
2
30
-2
11
-2
21
2
31
-2
12
-4
22
2
32
-4
13
-2
23
2
33
-4
0
3DFACE
8
0
10
-4
20
4
30
-1
11
-2
21
4
31
-1
12
-4
22
4
32
-3
13
-2
23
4
33
-3
0
3DFACE
8
0
10
-4
20
2
30
-1
11
-2
21
2
31
-1
12
-4
22
4
32
-1
13
-2
23
4
33
-1
0
3DFACE
8
0
10
-4
20
2
30
-3
11
-2
21
2
31
-3
12
-4
22
4
32
-3
13
-2
23
4
33
-3
0
3DFACE
8
0
10
-4
20
4
30
-1
11
-4
21
2
31
-1
12
-4
22
4
32
-3
13
-4
23
2
33
-3
0
3DFACE
8
0
10
-2
20
4
30
-1
11
-2
21
2
31
-1
12
-2
22
4
32
-3
13
-2
23
2
33
-3
0
3DFACE
8
0
10
-4
20
2
30
-1
11
-2
21
2
31
-1
12
-4
22
2
32
-3
13
-2
23
2
33
-3
0
3DFACE
8
0
10
-4
20
4
30
0
11
-2
21
4
31
0
12
-4
22
4
32
-2
13
-2
23
4
33
-2
0
3DFACE
8
0
10
-4
20
2
30
0
11
-2
21
2
31
0
12
-4
22
4
32
0
13
-2
23
4
33
0
0
3DFACE
8
0
10
-4
20
2
30
-2
11
-2
21
2
31
-2
12
-4
22
4
32
-2
13
-2
23
4
33
-2
0
3DFACE
8
0
10
-4
20
4
30
0
11
-4
21
2
31
0
12
-4
22
4
32
-2
13
-4
23
2
33
-2
0
3DFACE
8
0
10
-2
20
4
30
0
11
-2
21
2
31
0
12
-2
22
4
32
-2
13
-2
23
2
33
-2
0
3DFACE
8
0
10
-4
20
2
30
0
11
-2
21
2
31
0
12
-4
22
2
32
-2
13
-2
23
2
33
-2
0
3DFACE
8
0
10
-4
20
4
30
1
11
-2
21
4
31
1
12
-4
22
4
32
-1
13
-2
23
4
33
-1
0
3DFACE
8
0
10
-4
20
2
30
1
11
-2
21
2
31
1
12
-4
22
4
32
1
13
-2
23
4
33
1
0
3DFACE
8
0
10
-4
20
2
30
-1
11
-2
21
2
31
-1
12
-4
22
4
32
-1
13
-2
23
4
33
-1
0
3DFACE
8
0
10
-4
20
4
30
1
11
-4
21
2
31
1
12
-4
22
4
32
-1
13
-4
23
2
33
-1
0
3DFACE
8
0
10
-2
20
4
30
1
11
-2
21
2
31
1
12
-2
22
4
32
-1
13
-2
23
2
33
-1
0
3DFACE
8
0
10
-4
20
2
30
1
11
-2
21
2
31
1
12
-4
22
2
32
-1
13
-2
23
2
33
-1
0
3DFACE
8
0
10
-4
20
4
30
2
11
-2
21
4
31
2
12
-4
22
4
32
0
13
-2
23
4
33
0
0
3DFACE
8
0
10
-4
20
2
30
2
11
-2
21
2
31
2
12
-4
22
4
32
2
13
-2
23
4
33
2
0
3DFACE
8
0
10
-4
20
2
30
0
11
-2
21
2
31
0
12
-4
22
4
32
0
13
-2
23
4
33
0
0
3DFACE
8
0
10
-4
20
4
30
2
11
-4
21
2
31
2
12
-4
22
4
32
0
13
-4
23
2
33
0
0
3DFACE
8
0
10
-2
20
4
30
2
11
-2
21
2
31
2
12
-2
22
4
32
0
13
-2
23
2
33
0
0
3DFACE
8
0
10
-4
20
2
30
2
11
-2
21
2
31
2
12
-4
22
2
32
0
13
-2
23
2
33
0
0
3DFACE
8
0
10
-4
20
4
30
3
11
-2
21
4
31
3
12
-4
22
4
32
1
13
-2
23
4
33
1
0
3DFACE
8
0
10
-4
20
2
30
3
11
-2
21
2
31
3
12
-4
22
4
32
3
13
-2
23
4
33
3
0
3DFACE
8
0
10
-4
20
2
30
1
11
-2
21
2
31
1
12
-4
22
4
32
1
13
-2
23
4
33
1
0
3DFACE
8
0
10
-4
20
4
30
3
11
-4
21
2
31
3
12
-4
22
4
32
1
13
-4
23
2
33
1
0
3DFACE
8
0
10
-2
20
4
30
3
11
-2
21
2
31
3
12
-2
22
4
32
1
13
-2
23
2
33
1
0
3DFACE
8
0
10
-4
20
2
30
3
11
-2
21
2
31
3
12
-4
22
2
32
1
13
-2
23
2
33
1
0
3DFACE
8
0
10
-4
20
4
30
4
11
-2
21
4
31
4
12
-4
22
4
32
2
13
-2
23
4
33
2
0
3DFACE
8
0
10
-4
20
2
30
4
11
-2
21
2
31
4
12
-4
22
4
32
4
13
-2
23
4
33
4
0
3DFACE
8
0
10
-4
20
2
30
2
11
-2
21
2
31
2
12
-4
22
4
32
2
13
-2
23
4
33
2
0
3DFACE
8
0
10
-4
20
4
30
4
11
-4
21
2
31
4
12
-4
22
4
32
2
13
-4
23
2
33
2
0
3DFACE
8
0
10
-2
20
4
30
4
11
-2
21
2
31
4
12
-2
22
4
32
2
13
-2
23
2
33
2
0
3DFACE
8
0
10
-4
20
2
30
4
11
-2
21
2
31
4
12
-4
22
2
32
2
13
-2
23
2
33
2
0
3DFACE
8
0
10
-4
20
5
30
-2
11
-2
21
5
31
-2
12
-4
22
5
32
-4
13
-2
23
5
33
-4
0
3DFACE
8
0
10
-4
20
3
30
-2
11
-2
21
3
31
-2
12
-4
22
5
32
-2
13
-2
23
5
33
-2
0
3DFACE
8
0
10
-4
20
3
30
-4
11
-2
21
3
31
-4
12
-4
22
5
32
-4
13
-2
23
5
33
-4
0
3DFACE
8
0
10
-4
20
5
30
-2
11
-4
21
3
31
-2
12
-4
22
5
32
-4
13
-4
23
3
33
-4
0
3DFACE
8
0
10
-2
20
5
30
-2
11
-2
21
3
31
-2
12
-2
22
5
32
-4
13
-2
23
3
33
-4
0
3DFACE
8
0
10
-4
20
3
30
-2
11
-2
21
3
31
-2
12
-4
22
3
32
-4
13
-2
23
3
33
-4
0
3DFACE
8
0
10
-4
20
5
30
-1
11
-2
21
5
31
-1
12
-4
22
5
32
-3
13
-2
23
5
33
-3
0
3DFACE
8
0
10
-4
20
3
30
-1
11
-2
21
3
31
-1
12
-4
22
5
32
-1
13
-2
23
5
33
-1
0
3DFACE
8
0
10
-4
20
3
30
-3
11
-2
21
3
31
-3
12
-4
22
5
32
-3
13
-2
23
5
33
-3
0
3DFACE
8
0
10
-4
20
5
30
-1
11
-4
21
3
31
-1
12
-4
22
5
32
-3
13
-4
23
3
33
-3
0
3DFACE
8
0
10
-2
20
5
30
-1
11
-2
21
3
31
-1
12
-2
22
5
32
-3
13
-2
23
3
33
-3
0
3DFACE
8
0
10
-4
20
3
30
-1
11
-2
21
3
31
-1
12
-4
22
3
32
-3
13
-2
23
3
33
-3
0
3DFACE
8
0
10
-3
20
5
30
-2
11
-1
21
5
31
-2
12
-3
22
5
32
-4
13
-1
23
5
33
-4
0
3DFACE
8
0
10
-3
20
3
30
-2
11
-1
21
3
31
-2
12
-3
22
5
32
-2
13
-1
23
5
33
-2
0
3DFACE
8
0
10
-3
20
3
30
-4
11
-1
21
3
31
-4
12
-3
22
5
32
-4
13
-1
23
5
33
-4
0
3DFACE
8
0
10
-3
20
5
30
-2
11
-3
21
3
31
-2
12
-3
22
5
32
-4
13
-3
23
3
33
-4
0
3DFACE
8
0
10
-1
20
5
30
-2
11
-1
21
3
31
-2
12
-1
22
5
32
-4
13
-1
23
3
33
-4
0
3DFACE
8
0
10
-3
20
3
30
-2
11
-1
21
3
31
-2
12
-3
22
3
32
-4
13
-1
23
3
33
-4
0
3DFACE
8
0
10
-3
20
5
30
-1
11
-1
21
5
31
-1
12
-3
22
5
32
-3
13
-1
23
5
33
-3
0
3DFACE
8
0
10
-3
20
3
30
-1
11
-1
21
3
31
-1
12
-3
22
5
32
-1
13
-1
23
5
33
-1
0
3DFACE
8
0
10
-3
20
3
30
-3
11
-1
21
3
31
-3
12
-3
22
5
32
-3
13
-1
23
5
33
-3
0
3DFACE
8
0
10
-3
20
5
30
-1
11
-3
21
3
31
-1
12
-3
22
5
32
-3
13
-3
23
3
33
-3
0
3DFACE
8
0
10
-1
20
5
30
-1
11
-1
21
3
31
-1
12
-1
22
5
32
-3
13
-1
23
3
33
-3
0
3DFACE
8
0
10
-3
20
3
30
-1
11
-1
21
3
31
-1
12
-3
22
3
32
-3
13
-1
23
3
33
-3
0
3DFACE
8
0
10
-2
20
5
30
-2
11
0
21
5
31
-2
12
-2
22
5
32
-4
13
0
23
5
33
-4
0
3DFACE
8
0
10
-2
20
3
30
-2
11
0
21
3
31
-2
12
-2
22
5
32
-2
13
0
23
5
33
-2
0
3DFACE
8
0
10
-2
20
3
30
-4
11
0
21
3
31
-4
12
-2
22
5
32
-4
13
0
23
5
33
-4
0
3DFACE
8
0
10
-2
20
5
30
-2
11
-2
21
3
31
-2
12
-2
22
5
32
-4
13
-2
23
3
33
-4
0
3DFACE
8
0
10
0
20
5
30
-2
11
0
21
3
31
-2
12
0
22
5
32
-4
13
0
23
3
33
-4
0
3DFACE
8
0
10
-2
20
3
30
-2
11
0
21
3
31
-2
12
-2
22
3
32
-4
13
0
23
3
33
-4
0
3DFACE
8
0
10
-2
20
5
30
-1
11
0
21
5
31
-1
12
-2
22
5
32
-3
13
0
23
5
33
-3
0
3DFACE
8
0
10
-2
20
3
30
-1
11
0
21
3
31
-1
12
-2
22
5
32
-1
13
0
23
5
33
-1
0
3DFACE
8
0
10
-2
20
3
30
-3
11
0
21
3
31
-3
12
-2
22
5
32
-3
13
0
23
5
33
-3
0
3DFACE
8
0
10
-2
20
5
30
-1
11
-2
21
3
31
-1
12
-2
22
5
32
-3
13
-2
23
3
33
-3
0
3DFACE
8
0
10
0
20
5
30
-1
11
0
21
3
31
-1
12
0
22
5
32
-3
13
0
23
3
33
-3
0
3DFACE
8
0
10
-2
20
3
30
-1
11
0
21
3
31
-1
12
-2
22
3
32
-3
13
0
23
3
33
-3
0
3DFACE
8
0
10
-1
20
5
30
-2
11
1
21
5
31
-2
12
-1
22
5
32
-4
13
1
23
5
33
-4
0
3DFACE
8
0
10
-1
20
3
30
-2
11
1
21
3
31
-2
12
-1
22
5
32
-2
13
1
23
5
33
-2
0
3DFACE
8
0
10
-1
20
3
30
-4
11
1
21
3
31
-4
12
-1
22
5
32
-4
13
1
23
5
33
-4
0
3DFACE
8
0
10
-1
20
5
30
-2
11
-1
21
3
31
-2
12
-1
22
5
32
-4
13
-1
23
3
33
-4
0
3DFACE
8
0
10
1
20
5
30
-2
11
1
21
3
31
-2
12
1
22
5
32
-4
13
1
23
3
33
-4
0
3DFACE
8
0
10
-1
20
3
30
-2
11
1
21
3
31
-2
12
-1
22
3
32
-4
13
1
23
3
33
-4
0
3DFACE
8
0
10
-1
20
5
30
-1
11
1
21
5
31
-1
12
-1
22
5
32
-3
13
1
23
5
33
-3
0
3DFACE
8
0
10
-1
20
3
30
-1
11
1
21
3
31
-1
12
-1
22
5
32
-1
13
1
23
5
33
-1
0
3DFACE
8
0
10
-1
20
3
30
-3
11
1
21
3
31
-3
12
-1
22
5
32
-3
13
1
23
5
33
-3
0
3DFACE
8
0
10
-1
20
5
30
-1
11
-1
21
3
31
-1
12
-1
22
5
32
-3
13
-1
23
3
33
-3
0
3DFACE
8
0
10
1
20
5
30
-1
11
1
21
3
31
-1
12
1
22
5
32
-3
13
1
23
3
33
-3
0
3DFACE
8
0
10
-1
20
3
30
-1
11
1
21
3
31
-1
12
-1
22
3
32
-3
13
1
23
3
33
-3
0
3DFACE
8
0
10
0
20
5
30
-2
11
2
21
5
31
-2
12
0
22
5
32
-4
13
2
23
5
33
-4
0
3DFACE
8
0
10
0
20
3
30
-2
11
2
21
3
31
-2
12
0
22
5
32
-2
13
2
23
5
33
-2
0
3DFACE
8
0
10
0
20
3
30
-4
11
2
21
3
31
-4
12
0
22
5
32
-4
13
2
23
5
33
-4
0
3DFACE
8
0
10
0
20
5
30
-2
11
0
21
3
31
-2
12
0
22
5
32
-4
13
0
23
3
33
-4
0
3DFACE
8
0
10
2
20
5
30
-2
11
2
21
3
31
-2
12
2
22
5
32
-4
13
2
23
3
33
-4
0
3DFACE
8
0
10
0
20
3
30
-2
11
2
21
3
31
-2
12
0
22
3
32
-4
13
2
23
3
33
-4
0
3DFACE
8
0
10
0
20
5
30
-1
11
2
21
5
31
-1
12
0
22
5
32
-3
13
2
23
5
33
-3
0
3DFACE
8
0
10
0
20
3
30
-1
11
2
21
3
31
-1
12
0
22
5
32
-1
13
2
23
5
33
-1
0
3DFACE
8
0
10
0
20
3
30
-3
11
2
21
3
31
-3
12
0
22
5
32
-3
13
2
23
5
33
-3
0
3DFACE
8
0
10
0
20
5
30
-1
11
0
21
3
31
-1
12
0
22
5
32
-3
13
0
23
3
33
-3
0
3DFACE
8
0
10
2
20
5
30
-1
11
2
21
3
31
-1
12
2
22
5
32
-3
13
2
23
3
33
-3
0
3DFACE
8
0
10
0
20
3
30
-1
11
2
21
3
31
-1
12
0
22
3
32
-3
13
2
23
3
33
-3
0
3DFACE
8
0
10
1
20
5
30
-2
11
3
21
5
31
-2
12
1
22
5
32
-4
13
3
23
5
33
-4
0
3DFACE
8
0
10
1
20
3
30
-2
11
3
21
3
31
-2
12
1
22
5
32
-2
13
3
23
5
33
-2
0
3DFACE
8
0
10
1
20
3
30
-4
11
3
21
3
31
-4
12
1
22
5
32
-4
13
3
23
5
33
-4
0
3DFACE
8
0
10
1
20
5
30
-2
11
1
21
3
31
-2
12
1
22
5
32
-4
13
1
23
3
33
-4
0
3DFACE
8
0
10
3
20
5
30
-2
11
3
21
3
31
-2
12
3
22
5
32
-4
13
3
23
3
33
-4
0
3DFACE
8
0
10
1
20
3
30
-2
11
3
21
3
31
-2
12
1
22
3
32
-4
13
3
23
3
33
-4
0
3DFACE
8
0
10
1
20
5
30
-1
11
3
21
5
31
-1
12
1
22
5
32
-3
13
3
23
5
33
-3
0
3DFACE
8
0
10
1
20
3
30
-1
11
3
21
3
31
-1
12
1
22
5
32
-1
13
3
23
5
33
-1
0
3DFACE
8
0
10
1
20
3
30
-3
11
3
21
3
31
-3
12
1
22
5
32
-3
13
3
23
5
33
-3
0
3DFACE
8
0
10
1
20
5
30
-1
11
1
21
3
31
-1
12
1
22
5
32
-3
13
1
23
3
33
-3
0
3DFACE
8
0
10
3
20
5
30
-1
11
3
21
3
31
-1
12
3
22
5
32
-3
13
3
23
3
33
-3
0
3DFACE
8
0
10
1
20
3
30
-1
11
3
21
3
31
-1
12
1
22
3
32
-3
13
3
23
3
33
-3
0
3DFACE
8
0
10
2
20
5
30
-2
11
4
21
5
31
-2
12
2
22
5
32
-4
13
4
23
5
33
-4
0
3DFACE
8
0
10
2
20
3
30
-2
11
4
21
3
31
-2
12
2
22
5
32
-2
13
4
23
5
33
-2
0
3DFACE
8
0
10
2
20
3
30
-4
11
4
21
3
31
-4
12
2
22
5
32
-4
13
4
23
5
33
-4
0
3DFACE
8
0
10
2
20
5
30
-2
11
2
21
3
31
-2
12
2
22
5
32
-4
13
2
23
3
33
-4
0
3DFACE
8
0
10
4
20
5
30
-2
11
4
21
3
31
-2
12
4
22
5
32
-4
13
4
23
3
33
-4
0
3DFACE
8
0
10
2
20
3
30
-2
11
4
21
3
31
-2
12
2
22
3
32
-4
13
4
23
3
33
-4
0
3DFACE
8
0
10
2
20
5
30
-1
11
4
21
5
31
-1
12
2
22
5
32
-3
13
4
23
5
33
-3
0
3DFACE
8
0
10
2
20
3
30
-1
11
4
21
3
31
-1
12
2
22
5
32
-1
13
4
23
5
33
-1
0
3DFACE
8
0
10
2
20
3
30
-3
11
4
21
3
31
-3
12
2
22
5
32
-3
13
4
23
5
33
-3
0
3DFACE
8
0
10
2
20
5
30
-1
11
2
21
3
31
-1
12
2
22
5
32
-3
13
2
23
3
33
-3
0
3DFACE
8
0
10
4
20
5
30
-1
11
4
21
3
31
-1
12
4
22
5
32
-3
13
4
23
3
33
-3
0
3DFACE
8
0
10
2
20
3
30
-1
11
4
21
3
31
-1
12
2
22
3
32
-3
13
4
23
3
33
-3
0
3DFACE
8
0
10
2
20
2
30
-2
11
4
21
2
31
-2
12
2
22
2
32
-4
13
4
23
2
33
-4
0
3DFACE
8
0
10
2
20
0
30
-2
11
4
21
0
31
-2
12
2
22
2
32
-2
13
4
23
2
33
-2
0
3DFACE
8
0
10
2
20
0
30
-4
11
4
21
0
31
-4
12
2
22
2
32
-4
13
4
23
2
33
-4
0
3DFACE
8
0
10
2
20
2
30
-2
11
2
21
0
31
-2
12
2
22
2
32
-4
13
2
23
0
33
-4
0
3DFACE
8
0
10
4
20
2
30
-2
11
4
21
0
31
-2
12
4
22
2
32
-4
13
4
23
0
33
-4
0
3DFACE
8
0
10
2
20
0
30
-2
11
4
21
0
31
-2
12
2
22
0
32
-4
13
4
23
0
33
-4
0
3DFACE
8
0
10
2
20
2
30
-1
11
4
21
2
31
-1
12
2
22
2
32
-3
13
4
23
2
33
-3
0
3DFACE
8
0
10
2
20
0
30
-1
11
4
21
0
31
-1
12
2
22
2
32
-1
13
4
23
2
33
-1
0
3DFACE
8
0
10
2
20
0
30
-3
11
4
21
0
31
-3
12
2
22
2
32
-3
13
4
23
2
33
-3
0
3DFACE
8
0
10
2
20
2
30
-1
11
2
21
0
31
-1
12
2
22
2
32
-3
13
2
23
0
33
-3
0
3DFACE
8
0
10
4
20
2
30
-1
11
4
21
0
31
-1
12
4
22
2
32
-3
13
4
23
0
33
-3
0
3DFACE
8
0
10
2
20
0
30
-1
11
4
21
0
31
-1
12
2
22
0
32
-3
13
4
23
0
33
-3
0
3DFACE
8
0
10
2
20
2
30
0
11
4
21
2
31
0
12
2
22
2
32
-2
13
4
23
2
33
-2
0
3DFACE
8
0
10
2
20
0
30
0
11
4
21
0
31
0
12
2
22
2
32
0
13
4
23
2
33
0
0
3DFACE
8
0
10
2
20
0
30
-2
11
4
21
0
31
-2
12
2
22
2
32
-2
13
4
23
2
33
-2
0
3DFACE
8
0
10
2
20
2
30
0
11
2
21
0
31
0
12
2
22
2
32
-2
13
2
23
0
33
-2
0
3DFACE
8
0
10
4
20
2
30
0
11
4
21
0
31
0
12
4
22
2
32
-2
13
4
23
0
33
-2
0
3DFACE
8
0
10
2
20
0
30
0
11
4
21
0
31
0
12
2
22
0
32
-2
13
4
23
0
33
-2
0
3DFACE
8
0
10
2
20
2
30
1
11
4
21
2
31
1
12
2
22
2
32
-1
13
4
23
2
33
-1
0
3DFACE
8
0
10
2
20
0
30
1
11
4
21
0
31
1
12
2
22
2
32
1
13
4
23
2
33
1
0
3DFACE
8
0
10
2
20
0
30
-1
11
4
21
0
31
-1
12
2
22
2
32
-1
13
4
23
2
33
-1
0
3DFACE
8
0
10
2
20
2
30
1
11
2
21
0
31
1
12
2
22
2
32
-1
13
2
23
0
33
-1
0
3DFACE
8
0
10
4
20
2
30
1
11
4
21
0
31
1
12
4
22
2
32
-1
13
4
23
0
33
-1
0
3DFACE
8
0
10
2
20
0
30
1
11
4
21
0
31
1
12
2
22
0
32
-1
13
4
23
0
33
-1
0
3DFACE
8
0
10
2
20
2
30
2
11
4
21
2
31
2
12
2
22
2
32
0
13
4
23
2
33
0
0
3DFACE
8
0
10
2
20
0
30
2
11
4
21
0
31
2
12
2
22
2
32
2
13
4
23
2
33
2
0
3DFACE
8
0
10
2
20
0
30
0
11
4
21
0
31
0
12
2
22
2
32
0
13
4
23
2
33
0
0
3DFACE
8
0
10
2
20
2
30
2
11
2
21
0
31
2
12
2
22
2
32
0
13
2
23
0
33
0
0
3DFACE
8
0
10
4
20
2
30
2
11
4
21
0
31
2
12
4
22
2
32
0
13
4
23
0
33
0
0
3DFACE
8
0
10
2
20
0
30
2
11
4
21
0
31
2
12
2
22
0
32
0
13
4
23
0
33
0
0
3DFACE
8
0
10
2
20
2
30
3
11
4
21
2
31
3
12
2
22
2
32
1
13
4
23
2
33
1
0
3DFACE
8
0
10
2
20
0
30
3
11
4
21
0
31
3
12
2
22
2
32
3
13
4
23
2
33
3
0
3DFACE
8
0
10
2
20
0
30
1
11
4
21
0
31
1
12
2
22
2
32
1
13
4
23
2
33
1
0
3DFACE
8
0
10
2
20
2
30
3
11
2
21
0
31
3
12
2
22
2
32
1
13
2
23
0
33
1
0
3DFACE
8
0
10
4
20
2
30
3
11
4
21
0
31
3
12
4
22
2
32
1
13
4
23
0
33
1
0
3DFACE
8
0
10
2
20
0
30
3
11
4
21
0
31
3
12
2
22
0
32
1
13
4
23
0
33
1
0
3DFACE
8
0
10
2
20
2
30
4
11
4
21
2
31
4
12
2
22
2
32
2
13
4
23
2
33
2
0
3DFACE
8
0
10
2
20
0
30
4
11
4
21
0
31
4
12
2
22
2
32
4
13
4
23
2
33
4
0
3DFACE
8
0
10
2
20
0
30
2
11
4
21
0
31
2
12
2
22
2
32
2
13
4
23
2
33
2
0
3DFACE
8
0
10
2
20
2
30
4
11
2
21
0
31
4
12
2
22
2
32
2
13
2
23
0
33
2
0
3DFACE
8
0
10
4
20
2
30
4
11
4
21
0
31
4
12
4
22
2
32
2
13
4
23
0
33
2
0
3DFACE
8
0
10
2
20
0
30
4
11
4
21
0
31
4
12
2
22
0
32
2
13
4
23
0
33
2
0
3DFACE
8
0
10
2
20
3
30
-2
11
4
21
3
31
-2
12
2
22
3
32
-4
13
4
23
3
33
-4
0
3DFACE
8
0
10
2
20
1
30
-2
11
4
21
1
31
-2
12
2
22
3
32
-2
13
4
23
3
33
-2
0
3DFACE
8
0
10
2
20
1
30
-4
11
4
21
1
31
-4
12
2
22
3
32
-4
13
4
23
3
33
-4
0
3DFACE
8
0
10
2
20
3
30
-2
11
2
21
1
31
-2
12
2
22
3
32
-4
13
2
23
1
33
-4
0
3DFACE
8
0
10
4
20
3
30
-2
11
4
21
1
31
-2
12
4
22
3
32
-4
13
4
23
1
33
-4
0
3DFACE
8
0
10
2
20
1
30
-2
11
4
21
1
31
-2
12
2
22
1
32
-4
13
4
23
1
33
-4
0
3DFACE
8
0
10
2
20
3
30
-1
11
4
21
3
31
-1
12
2
22
3
32
-3
13
4
23
3
33
-3
0
3DFACE
8
0
10
2
20
1
30
-1
11
4
21
1
31
-1
12
2
22
3
32
-1
13
4
23
3
33
-1
0
3DFACE
8
0
10
2
20
1
30
-3
11
4
21
1
31
-3
12
2
22
3
32
-3
13
4
23
3
33
-3
0
3DFACE
8
0
10
2
20
3
30
-1
11
2
21
1
31
-1
12
2
22
3
32
-3
13
2
23
1
33
-3
0
3DFACE
8
0
10
4
20
3
30
-1
11
4
21
1
31
-1
12
4
22
3
32
-3
13
4
23
1
33
-3
0
3DFACE
8
0
10
2
20
1
30
-1
11
4
21
1
31
-1
12
2
22
1
32
-3
13
4
23
1
33
-3
0
3DFACE
8
0
10
2
20
3
30
0
11
4
21
3
31
0
12
2
22
3
32
-2
13
4
23
3
33
-2
0
3DFACE
8
0
10
2
20
1
30
0
11
4
21
1
31
0
12
2
22
3
32
0
13
4
23
3
33
0
0
3DFACE
8
0
10
2
20
1
30
-2
11
4
21
1
31
-2
12
2
22
3
32
-2
13
4
23
3
33
-2
0
3DFACE
8
0
10
2
20
3
30
0
11
2
21
1
31
0
12
2
22
3
32
-2
13
2
23
1
33
-2
0
3DFACE
8
0
10
4
20
3
30
0
11
4
21
1
31
0
12
4
22
3
32
-2
13
4
23
1
33
-2
0
3DFACE
8
0
10
2
20
1
30
0
11
4
21
1
31
0
12
2
22
1
32
-2
13
4
23
1
33
-2
0
3DFACE
8
0
10
2
20
3
30
1
11
4
21
3
31
1
12
2
22
3
32
-1
13
4
23
3
33
-1
0
3DFACE
8
0
10
2
20
1
30
1
11
4
21
1
31
1
12
2
22
3
32
1
13
4
23
3
33
1
0
3DFACE
8
0
10
2
20
1
30
-1
11
4
21
1
31
-1
12
2
22
3
32
-1
13
4
23
3
33
-1
0
3DFACE
8
0
10
2
20
3
30
1
11
2
21
1
31
1
12
2
22
3
32
-1
13
2
23
1
33
-1
0
3DFACE
8
0
10
4
20
3
30
1
11
4
21
1
31
1
12
4
22
3
32
-1
13
4
23
1
33
-1
0
3DFACE
8
0
10
2
20
1
30
1
11
4
21
1
31
1
12
2
22
1
32
-1
13
4
23
1
33
-1
0
3DFACE
8
0
10
2
20
3
30
2
11
4
21
3
31
2
12
2
22
3
32
0
13
4
23
3
33
0
0
3DFACE
8
0
10
2
20
1
30
2
11
4
21
1
31
2
12
2
22
3
32
2
13
4
23
3
33
2
0
3DFACE
8
0
10
2
20
1
30
0
11
4
21
1
31
0
12
2
22
3
32
0
13
4
23
3
33
0
0
3DFACE
8
0
10
2
20
3
30
2
11
2
21
1
31
2
12
2
22
3
32
0
13
2
23
1
33
0
0
3DFACE
8
0
10
4
20
3
30
2
11
4
21
1
31
2
12
4
22
3
32
0
13
4
23
1
33
0
0
3DFACE
8
0
10
2
20
1
30
2
11
4
21
1
31
2
12
2
22
1
32
0
13
4
23
1
33
0
0
3DFACE
8
0
10
2
20
3
30
3
11
4
21
3
31
3
12
2
22
3
32
1
13
4
23
3
33
1
0
3DFACE
8
0
10
2
20
1
30
3
11
4
21
1
31
3
12
2
22
3
32
3
13
4
23
3
33
3
0
3DFACE
8
0
10
2
20
1
30
1
11
4
21
1
31
1
12
2
22
3
32
1
13
4
23
3
33
1
0
3DFACE
8
0
10
2
20
3
30
3
11
2
21
1
31
3
12
2
22
3
32
1
13
2
23
1
33
1
0
3DFACE
8
0
10
4
20
3
30
3
11
4
21
1
31
3
12
4
22
3
32
1
13
4
23
1
33
1
0
3DFACE
8
0
10
2
20
1
30
3
11
4
21
1
31
3
12
2
22
1
32
1
13
4
23
1
33
1
0
3DFACE
8
0
10
2
20
3
30
4
11
4
21
3
31
4
12
2
22
3
32
2
13
4
23
3
33
2
0
3DFACE
8
0
10
2
20
1
30
4
11
4
21
1
31
4
12
2
22
3
32
4
13
4
23
3
33
4
0
3DFACE
8
0
10
2
20
1
30
2
11
4
21
1
31
2
12
2
22
3
32
2
13
4
23
3
33
2
0
3DFACE
8
0
10
2
20
3
30
4
11
2
21
1
31
4
12
2
22
3
32
2
13
2
23
1
33
2
0
3DFACE
8
0
10
4
20
3
30
4
11
4
21
1
31
4
12
4
22
3
32
2
13
4
23
1
33
2
0
3DFACE
8
0
10
2
20
1
30
4
11
4
21
1
31
4
12
2
22
1
32
2
13
4
23
1
33
2
0
3DFACE
8
0
10
2
20
4
30
-2
11
4
21
4
31
-2
12
2
22
4
32
-4
13
4
23
4
33
-4
0
3DFACE
8
0
10
2
20
2
30
-2
11
4
21
2
31
-2
12
2
22
4
32
-2
13
4
23
4
33
-2
0
3DFACE
8
0
10
2
20
2
30
-4
11
4
21
2
31
-4
12
2
22
4
32
-4
13
4
23
4
33
-4
0
3DFACE
8
0
10
2
20
4
30
-2
11
2
21
2
31
-2
12
2
22
4
32
-4
13
2
23
2
33
-4
0
3DFACE
8
0
10
4
20
4
30
-2
11
4
21
2
31
-2
12
4
22
4
32
-4
13
4
23
2
33
-4
0
3DFACE
8
0
10
2
20
2
30
-2
11
4
21
2
31
-2
12
2
22
2
32
-4
13
4
23
2
33
-4
0
3DFACE
8
0
10
2
20
4
30
-1
11
4
21
4
31
-1
12
2
22
4
32
-3
13
4
23
4
33
-3
0
3DFACE
8
0
10
2
20
2
30
-1
11
4
21
2
31
-1
12
2
22
4
32
-1
13
4
23
4
33
-1
0
3DFACE
8
0
10
2
20
2
30
-3
11
4
21
2
31
-3
12
2
22
4
32
-3
13
4
23
4
33
-3
0
3DFACE
8
0
10
2
20
4
30
-1
11
2
21
2
31
-1
12
2
22
4
32
-3
13
2
23
2
33
-3
0
3DFACE
8
0
10
4
20
4
30
-1
11
4
21
2
31
-1
12
4
22
4
32
-3
13
4
23
2
33
-3
0
3DFACE
8
0
10
2
20
2
30
-1
11
4
21
2
31
-1
12
2
22
2
32
-3
13
4
23
2
33
-3
0
3DFACE
8
0
10
2
20
4
30
0
11
4
21
4
31
0
12
2
22
4
32
-2
13
4
23
4
33
-2
0
3DFACE
8
0
10
2
20
2
30
0
11
4
21
2
31
0
12
2
22
4
32
0
13
4
23
4
33
0
0
3DFACE
8
0
10
2
20
2
30
-2
11
4
21
2
31
-2
12
2
22
4
32
-2
13
4
23
4
33
-2
0
3DFACE
8
0
10
2
20
4
30
0
11
2
21
2
31
0
12
2
22
4
32
-2
13
2
23
2
33
-2
0
3DFACE
8
0
10
4
20
4
30
0
11
4
21
2
31
0
12
4
22
4
32
-2
13
4
23
2
33
-2
0
3DFACE
8
0
10
2
20
2
30
0
11
4
21
2
31
0
12
2
22
2
32
-2
13
4
23
2
33
-2
0
3DFACE
8
0
10
2
20
4
30
1
11
4
21
4
31
1
12
2
22
4
32
-1
13
4
23
4
33
-1
0
3DFACE
8
0
10
2
20
2
30
1
11
4
21
2
31
1
12
2
22
4
32
1
13
4
23
4
33
1
0
3DFACE
8
0
10
2
20
2
30
-1
11
4
21
2
31
-1
12
2
22
4
32
-1
13
4
23
4
33
-1
0
3DFACE
8
0
10
2
20
4
30
1
11
2
21
2
31
1
12
2
22
4
32
-1
13
2
23
2
33
-1
0
3DFACE
8
0
10
4
20
4
30
1
11
4
21
2
31
1
12
4
22
4
32
-1
13
4
23
2
33
-1
0
3DFACE
8
0
10
2
20
2
30
1
11
4
21
2
31
1
12
2
22
2
32
-1
13
4
23
2
33
-1
0
3DFACE
8
0
10
2
20
4
30
2
11
4
21
4
31
2
12
2
22
4
32
0
13
4
23
4
33
0
0
3DFACE
8
0
10
2
20
2
30
2
11
4
21
2
31
2
12
2
22
4
32
2
13
4
23
4
33
2
0
3DFACE
8
0
10
2
20
2
30
0
11
4
21
2
31
0
12
2
22
4
32
0
13
4
23
4
33
0
0
3DFACE
8
0
10
2
20
4
30
2
11
2
21
2
31
2
12
2
22
4
32
0
13
2
23
2
33
0
0
3DFACE
8
0
10
4
20
4
30
2
11
4
21
2
31
2
12
4
22
4
32
0
13
4
23
2
33
0
0
3DFACE
8
0
10
2
20
2
30
2
11
4
21
2
31
2
12
2
22
2
32
0
13
4
23
2
33
0
0
3DFACE
8
0
10
2
20
4
30
3
11
4
21
4
31
3
12
2
22
4
32
1
13
4
23
4
33
1
0
3DFACE
8
0
10
2
20
2
30
3
11
4
21
2
31
3
12
2
22
4
32
3
13
4
23
4
33
3
0
3DFACE
8
0
10
2
20
2
30
1
11
4
21
2
31
1
12
2
22
4
32
1
13
4
23
4
33
1
0
3DFACE
8
0
10
2
20
4
30
3
11
2
21
2
31
3
12
2
22
4
32
1
13
2
23
2
33
1
0
3DFACE
8
0
10
4
20
4
30
3
11
4
21
2
31
3
12
4
22
4
32
1
13
4
23
2
33
1
0
3DFACE
8
0
10
2
20
2
30
3
11
4
21
2
31
3
12
2
22
2
32
1
13
4
23
2
33
1
0
3DFACE
8
0
10
2
20
4
30
4
11
4
21
4
31
4
12
2
22
4
32
2
13
4
23
4
33
2
0
3DFACE
8
0
10
2
20
2
30
4
11
4
21
2
31
4
12
2
22
4
32
4
13
4
23
4
33
4
0
3DFACE
8
0
10
2
20
2
30
2
11
4
21
2
31
2
12
2
22
4
32
2
13
4
23
4
33
2
0
3DFACE
8
0
10
2
20
4
30
4
11
2
21
2
31
4
12
2
22
4
32
2
13
2
23
2
33
2
0
3DFACE
8
0
10
4
20
4
30
4
11
4
21
2
31
4
12
4
22
4
32
2
13
4
23
2
33
2
0
3DFACE
8
0
10
2
20
2
30
4
11
4
21
2
31
4
12
2
22
2
32
2
13
4
23
2
33
2
0
3DFACE
8
0
10
-4
20
5
30
0
11
-2
21
5
31
0
12
-4
22
5
32
-2
13
-2
23
5
33
-2
0
3DFACE
8
0
10
-4
20
3
30
0
11
-2
21
3
31
0
12
-4
22
5
32
0
13
-2
23
5
33
0
0
3DFACE
8
0
10
-4
20
3
30
-2
11
-2
21
3
31
-2
12
-4
22
5
32
-2
13
-2
23
5
33
-2
0
3DFACE
8
0
10
-4
20
5
30
0
11
-4
21
3
31
0
12
-4
22
5
32
-2
13
-4
23
3
33
-2
0
3DFACE
8
0
10
-2
20
5
30
0
11
-2
21
3
31
0
12
-2
22
5
32
-2
13
-2
23
3
33
-2
0
3DFACE
8
0
10
-4
20
3
30
0
11
-2
21
3
31
0
12
-4
22
3
32
-2
13
-2
23
3
33
-2
0
3DFACE
8
0
10
-4
20
5
30
1
11
-2
21
5
31
1
12
-4
22
5
32
-1
13
-2
23
5
33
-1
0
3DFACE
8
0
10
-4
20
3
30
1
11
-2
21
3
31
1
12
-4
22
5
32
1
13
-2
23
5
33
1
0
3DFACE
8
0
10
-4
20
3
30
-1
11
-2
21
3
31
-1
12
-4
22
5
32
-1
13
-2
23
5
33
-1
0
3DFACE
8
0
10
-4
20
5
30
1
11
-4
21
3
31
1
12
-4
22
5
32
-1
13
-4
23
3
33
-1
0
3DFACE
8
0
10
-2
20
5
30
1
11
-2
21
3
31
1
12
-2
22
5
32
-1
13
-2
23
3
33
-1
0
3DFACE
8
0
10
-4
20
3
30
1
11
-2
21
3
31
1
12
-4
22
3
32
-1
13
-2
23
3
33
-1
0
3DFACE
8
0
10
-4
20
5
30
2
11
-2
21
5
31
2
12
-4
22
5
32
0
13
-2
23
5
33
0
0
3DFACE
8
0
10
-4
20
3
30
2
11
-2
21
3
31
2
12
-4
22
5
32
2
13
-2
23
5
33
2
0
3DFACE
8
0
10
-4
20
3
30
0
11
-2
21
3
31
0
12
-4
22
5
32
0
13
-2
23
5
33
0
0
3DFACE
8
0
10
-4
20
5
30
2
11
-4
21
3
31
2
12
-4
22
5
32
0
13
-4
23
3
33
0
0
3DFACE
8
0
10
-2
20
5
30
2
11
-2
21
3
31
2
12
-2
22
5
32
0
13
-2
23
3
33
0
0
3DFACE
8
0
10
-4
20
3
30
2
11
-2
21
3
31
2
12
-4
22
3
32
0
13
-2
23
3
33
0
0
3DFACE
8
0
10
-3
20
5
30
0
11
-1
21
5
31
0
12
-3
22
5
32
-2
13
-1
23
5
33
-2
0
3DFACE
8
0
10
-3
20
3
30
0
11
-1
21
3
31
0
12
-3
22
5
32
0
13
-1
23
5
33
0
0
3DFACE
8
0
10
-3
20
3
30
-2
11
-1
21
3
31
-2
12
-3
22
5
32
-2
13
-1
23
5
33
-2
0
3DFACE
8
0
10
-3
20
5
30
0
11
-3
21
3
31
0
12
-3
22
5
32
-2
13
-3
23
3
33
-2
0
3DFACE
8
0
10
-1
20
5
30
0
11
-1
21
3
31
0
12
-1
22
5
32
-2
13
-1
23
3
33
-2
0
3DFACE
8
0
10
-3
20
3
30
0
11
-1
21
3
31
0
12
-3
22
3
32
-2
13
-1
23
3
33
-2
0
3DFACE
8
0
10
-3
20
5
30
1
11
-1
21
5
31
1
12
-3
22
5
32
-1
13
-1
23
5
33
-1
0
3DFACE
8
0
10
-3
20
3
30
1
11
-1
21
3
31
1
12
-3
22
5
32
1
13
-1
23
5
33
1
0
3DFACE
8
0
10
-3
20
3
30
-1
11
-1
21
3
31
-1
12
-3
22
5
32
-1
13
-1
23
5
33
-1
0
3DFACE
8
0
10
-3
20
5
30
1
11
-3
21
3
31
1
12
-3
22
5
32
-1
13
-3
23
3
33
-1
0
3DFACE
8
0
10
-1
20
5
30
1
11
-1
21
3
31
1
12
-1
22
5
32
-1
13
-1
23
3
33
-1
0
3DFACE
8
0
10
-3
20
3
30
1
11
-1
21
3
31
1
12
-3
22
3
32
-1
13
-1
23
3
33
-1
0
3DFACE
8
0
10
-3
20
5
30
2
11
-1
21
5
31
2
12
-3
22
5
32
0
13
-1
23
5
33
0
0
3DFACE
8
0
10
-3
20
3
30
2
11
-1
21
3
31
2
12
-3
22
5
32
2
13
-1
23
5
33
2
0
3DFACE
8
0
10
-3
20
3
30
0
11
-1
21
3
31
0
12
-3
22
5
32
0
13
-1
23
5
33
0
0
3DFACE
8
0
10
-3
20
5
30
2
11
-3
21
3
31
2
12
-3
22
5
32
0
13
-3
23
3
33
0
0
3DFACE
8
0
10
-1
20
5
30
2
11
-1
21
3
31
2
12
-1
22
5
32
0
13
-1
23
3
33
0
0
3DFACE
8
0
10
-3
20
3
30
2
11
-1
21
3
31
2
12
-3
22
3
32
0
13
-1
23
3
33
0
0
3DFACE
8
0
10
-2
20
5
30
0
11
0
21
5
31
0
12
-2
22
5
32
-2
13
0
23
5
33
-2
0
3DFACE
8
0
10
-2
20
3
30
0
11
0
21
3
31
0
12
-2
22
5
32
0
13
0
23
5
33
0
0
3DFACE
8
0
10
-2
20
3
30
-2
11
0
21
3
31
-2
12
-2
22
5
32
-2
13
0
23
5
33
-2
0
3DFACE
8
0
10
-2
20
5
30
0
11
-2
21
3
31
0
12
-2
22
5
32
-2
13
-2
23
3
33
-2
0
3DFACE
8
0
10
0
20
5
30
0
11
0
21
3
31
0
12
0
22
5
32
-2
13
0
23
3
33
-2
0
3DFACE
8
0
10
-2
20
3
30
0
11
0
21
3
31
0
12
-2
22
3
32
-2
13
0
23
3
33
-2
0
3DFACE
8
0
10
-2
20
5
30
1
11
0
21
5
31
1
12
-2
22
5
32
-1
13
0
23
5
33
-1
0
3DFACE
8
0
10
-2
20
3
30
1
11
0
21
3
31
1
12
-2
22
5
32
1
13
0
23
5
33
1
0
3DFACE
8
0
10
-2
20
3
30
-1
11
0
21
3
31
-1
12
-2
22
5
32
-1
13
0
23
5
33
-1
0
3DFACE
8
0
10
-2
20
5
30
1
11
-2
21
3
31
1
12
-2
22
5
32
-1
13
-2
23
3
33
-1
0
3DFACE
8
0
10
0
20
5
30
1
11
0
21
3
31
1
12
0
22
5
32
-1
13
0
23
3
33
-1
0
3DFACE
8
0
10
-2
20
3
30
1
11
0
21
3
31
1
12
-2
22
3
32
-1
13
0
23
3
33
-1
0
3DFACE
8
0
10
-2
20
5
30
2
11
0
21
5
31
2
12
-2
22
5
32
0
13
0
23
5
33
0
0
3DFACE
8
0
10
-2
20
3
30
2
11
0
21
3
31
2
12
-2
22
5
32
2
13
0
23
5
33
2
0
3DFACE
8
0
10
-2
20
3
30
0
11
0
21
3
31
0
12
-2
22
5
32
0
13
0
23
5
33
0
0
3DFACE
8
0
10
-2
20
5
30
2
11
-2
21
3
31
2
12
-2
22
5
32
0
13
-2
23
3
33
0
0
3DFACE
8
0
10
0
20
5
30
2
11
0
21
3
31
2
12
0
22
5
32
0
13
0
23
3
33
0
0
3DFACE
8
0
10
-2
20
3
30
2
11
0
21
3
31
2
12
-2
22
3
32
0
13
0
23
3
33
0
0
3DFACE
8
0
10
0
20
5
30
0
11
2
21
5
31
0
12
0
22
5
32
-2
13
2
23
5
33
-2
0
3DFACE
8
0
10
0
20
3
30
0
11
2
21
3
31
0
12
0
22
5
32
0
13
2
23
5
33
0
0
3DFACE
8
0
10
0
20
3
30
-2
11
2
21
3
31
-2
12
0
22
5
32
-2
13
2
23
5
33
-2
0
3DFACE
8
0
10
0
20
5
30
0
11
0
21
3
31
0
12
0
22
5
32
-2
13
0
23
3
33
-2
0
3DFACE
8
0
10
2
20
5
30
0
11
2
21
3
31
0
12
2
22
5
32
-2
13
2
23
3
33
-2
0
3DFACE
8
0
10
0
20
3
30
0
11
2
21
3
31
0
12
0
22
3
32
-2
13
2
23
3
33
-2
0
3DFACE
8
0
10
0
20
5
30
1
11
2
21
5
31
1
12
0
22
5
32
-1
13
2
23
5
33
-1
0
3DFACE
8
0
10
0
20
3
30
1
11
2
21
3
31
1
12
0
22
5
32
1
13
2
23
5
33
1
0
3DFACE
8
0
10
0
20
3
30
-1
11
2
21
3
31
-1
12
0
22
5
32
-1
13
2
23
5
33
-1
0
3DFACE
8
0
10
0
20
5
30
1
11
0
21
3
31
1
12
0
22
5
32
-1
13
0
23
3
33
-1
0
3DFACE
8
0
10
2
20
5
30
1
11
2
21
3
31
1
12
2
22
5
32
-1
13
2
23
3
33
-1
0
3DFACE
8
0
10
0
20
3
30
1
11
2
21
3
31
1
12
0
22
3
32
-1
13
2
23
3
33
-1
0
3DFACE
8
0
10
0
20
5
30
2
11
2
21
5
31
2
12
0
22
5
32
0
13
2
23
5
33
0
0
3DFACE
8
0
10
0
20
3
30
2
11
2
21
3
31
2
12
0
22
5
32
2
13
2
23
5
33
2
0
3DFACE
8
0
10
0
20
3
30
0
11
2
21
3
31
0
12
0
22
5
32
0
13
2
23
5
33
0
0
3DFACE
8
0
10
0
20
5
30
2
11
0
21
3
31
2
12
0
22
5
32
0
13
0
23
3
33
0
0
3DFACE
8
0
10
2
20
5
30
2
11
2
21
3
31
2
12
2
22
5
32
0
13
2
23
3
33
0
0
3DFACE
8
0
10
0
20
3
30
2
11
2
21
3
31
2
12
0
22
3
32
0
13
2
23
3
33
0
0
3DFACE
8
0
10
1
20
5
30
0
11
3
21
5
31
0
12
1
22
5
32
-2
13
3
23
5
33
-2
0
3DFACE
8
0
10
1
20
3
30
0
11
3
21
3
31
0
12
1
22
5
32
0
13
3
23
5
33
0
0
3DFACE
8
0
10
1
20
3
30
-2
11
3
21
3
31
-2
12
1
22
5
32
-2
13
3
23
5
33
-2
0
3DFACE
8
0
10
1
20
5
30
0
11
1
21
3
31
0
12
1
22
5
32
-2
13
1
23
3
33
-2
0
3DFACE
8
0
10
3
20
5
30
0
11
3
21
3
31
0
12
3
22
5
32
-2
13
3
23
3
33
-2
0
3DFACE
8
0
10
1
20
3
30
0
11
3
21
3
31
0
12
1
22
3
32
-2
13
3
23
3
33
-2
0
3DFACE
8
0
10
1
20
5
30
1
11
3
21
5
31
1
12
1
22
5
32
-1
13
3
23
5
33
-1
0
3DFACE
8
0
10
1
20
3
30
1
11
3
21
3
31
1
12
1
22
5
32
1
13
3
23
5
33
1
0
3DFACE
8
0
10
1
20
3
30
-1
11
3
21
3
31
-1
12
1
22
5
32
-1
13
3
23
5
33
-1
0
3DFACE
8
0
10
1
20
5
30
1
11
1
21
3
31
1
12
1
22
5
32
-1
13
1
23
3
33
-1
0
3DFACE
8
0
10
3
20
5
30
1
11
3
21
3
31
1
12
3
22
5
32
-1
13
3
23
3
33
-1
0
3DFACE
8
0
10
1
20
3
30
1
11
3
21
3
31
1
12
1
22
3
32
-1
13
3
23
3
33
-1
0
3DFACE
8
0
10
1
20
5
30
2
11
3
21
5
31
2
12
1
22
5
32
0
13
3
23
5
33
0
0
3DFACE
8
0
10
1
20
3
30
2
11
3
21
3
31
2
12
1
22
5
32
2
13
3
23
5
33
2
0
3DFACE
8
0
10
1
20
3
30
0
11
3
21
3
31
0
12
1
22
5
32
0
13
3
23
5
33
0
0
3DFACE
8
0
10
1
20
5
30
2
11
1
21
3
31
2
12
1
22
5
32
0
13
1
23
3
33
0
0
3DFACE
8
0
10
3
20
5
30
2
11
3
21
3
31
2
12
3
22
5
32
0
13
3
23
3
33
0
0
3DFACE
8
0
10
1
20
3
30
2
11
3
21
3
31
2
12
1
22
3
32
0
13
3
23
3
33
0
0
3DFACE
8
0
10
2
20
5
30
0
11
4
21
5
31
0
12
2
22
5
32
-2
13
4
23
5
33
-2
0
3DFACE
8
0
10
2
20
3
30
0
11
4
21
3
31
0
12
2
22
5
32
0
13
4
23
5
33
0
0
3DFACE
8
0
10
2
20
3
30
-2
11
4
21
3
31
-2
12
2
22
5
32
-2
13
4
23
5
33
-2
0
3DFACE
8
0
10
2
20
5
30
0
11
2
21
3
31
0
12
2
22
5
32
-2
13
2
23
3
33
-2
0
3DFACE
8
0
10
4
20
5
30
0
11
4
21
3
31
0
12
4
22
5
32
-2
13
4
23
3
33
-2
0
3DFACE
8
0
10
2
20
3
30
0
11
4
21
3
31
0
12
2
22
3
32
-2
13
4
23
3
33
-2
0
3DFACE
8
0
10
2
20
5
30
1
11
4
21
5
31
1
12
2
22
5
32
-1
13
4
23
5
33
-1
0
3DFACE
8
0
10
2
20
3
30
1
11
4
21
3
31
1
12
2
22
5
32
1
13
4
23
5
33
1
0
3DFACE
8
0
10
2
20
3
30
-1
11
4
21
3
31
-1
12
2
22
5
32
-1
13
4
23
5
33
-1
0
3DFACE
8
0
10
2
20
5
30
1
11
2
21
3
31
1
12
2
22
5
32
-1
13
2
23
3
33
-1
0
3DFACE
8
0
10
4
20
5
30
1
11
4
21
3
31
1
12
4
22
5
32
-1
13
4
23
3
33
-1
0
3DFACE
8
0
10
2
20
3
30
1
11
4
21
3
31
1
12
2
22
3
32
-1
13
4
23
3
33
-1
0
3DFACE
8
0
10
2
20
5
30
2
11
4
21
5
31
2
12
2
22
5
32
0
13
4
23
5
33
0
0
3DFACE
8
0
10
2
20
3
30
2
11
4
21
3
31
2
12
2
22
5
32
2
13
4
23
5
33
2
0
3DFACE
8
0
10
2
20
3
30
0
11
4
21
3
31
0
12
2
22
5
32
0
13
4
23
5
33
0
0
3DFACE
8
0
10
2
20
5
30
2
11
2
21
3
31
2
12
2
22
5
32
0
13
2
23
3
33
0
0
3DFACE
8
0
10
4
20
5
30
2
11
4
21
3
31
2
12
4
22
5
32
0
13
4
23
3
33
0
0
3DFACE
8
0
10
2
20
3
30
2
11
4
21
3
31
2
12
2
22
3
32
0
13
4
23
3
33
0
0
3DFACE
8
0
10
-4
20
5
30
3
11
-2
21
5
31
3
12
-4
22
5
32
1
13
-2
23
5
33
1
0
3DFACE
8
0
10
-4
20
3
30
3
11
-2
21
3
31
3
12
-4
22
5
32
3
13
-2
23
5
33
3
0
3DFACE
8
0
10
-4
20
3
30
1
11
-2
21
3
31
1
12
-4
22
5
32
1
13
-2
23
5
33
1
0
3DFACE
8
0
10
-4
20
5
30
3
11
-4
21
3
31
3
12
-4
22
5
32
1
13
-4
23
3
33
1
0
3DFACE
8
0
10
-2
20
5
30
3
11
-2
21
3
31
3
12
-2
22
5
32
1
13
-2
23
3
33
1
0
3DFACE
8
0
10
-4
20
3
30
3
11
-2
21
3
31
3
12
-4
22
3
32
1
13
-2
23
3
33
1
0
3DFACE
8
0
10
-4
20
5
30
4
11
-2
21
5
31
4
12
-4
22
5
32
2
13
-2
23
5
33
2
0
3DFACE
8
0
10
-4
20
3
30
4
11
-2
21
3
31
4
12
-4
22
5
32
4
13
-2
23
5
33
4
0
3DFACE
8
0
10
-4
20
3
30
2
11
-2
21
3
31
2
12
-4
22
5
32
2
13
-2
23
5
33
2
0
3DFACE
8
0
10
-4
20
5
30
4
11
-4
21
3
31
4
12
-4
22
5
32
2
13
-4
23
3
33
2
0
3DFACE
8
0
10
-2
20
5
30
4
11
-2
21
3
31
4
12
-2
22
5
32
2
13
-2
23
3
33
2
0
3DFACE
8
0
10
-4
20
3
30
4
11
-2
21
3
31
4
12
-4
22
3
32
2
13
-2
23
3
33
2
0
3DFACE
8
0
10
-4
20
5
30
5
11
-2
21
5
31
5
12
-4
22
5
32
3
13
-2
23
5
33
3
0
3DFACE
8
0
10
-4
20
3
30
5
11
-2
21
3
31
5
12
-4
22
5
32
5
13
-2
23
5
33
5
0
3DFACE
8
0
10
-4
20
3
30
3
11
-2
21
3
31
3
12
-4
22
5
32
3
13
-2
23
5
33
3
0
3DFACE
8
0
10
-4
20
5
30
5
11
-4
21
3
31
5
12
-4
22
5
32
3
13
-4
23
3
33
3
0
3DFACE
8
0
10
-2
20
5
30
5
11
-2
21
3
31
5
12
-2
22
5
32
3
13
-2
23
3
33
3
0
3DFACE
8
0
10
-4
20
3
30
5
11
-2
21
3
31
5
12
-4
22
3
32
3
13
-2
23
3
33
3
0
3DFACE
8
0
10
-3
20
5
30
3
11
-1
21
5
31
3
12
-3
22
5
32
1
13
-1
23
5
33
1
0
3DFACE
8
0
10
-3
20
3
30
3
11
-1
21
3
31
3
12
-3
22
5
32
3
13
-1
23
5
33
3
0
3DFACE
8
0
10
-3
20
3
30
1
11
-1
21
3
31
1
12
-3
22
5
32
1
13
-1
23
5
33
1
0
3DFACE
8
0
10
-3
20
5
30
3
11
-3
21
3
31
3
12
-3
22
5
32
1
13
-3
23
3
33
1
0
3DFACE
8
0
10
-1
20
5
30
3
11
-1
21
3
31
3
12
-1
22
5
32
1
13
-1
23
3
33
1
0
3DFACE
8
0
10
-3
20
3
30
3
11
-1
21
3
31
3
12
-3
22
3
32
1
13
-1
23
3
33
1
0
3DFACE
8
0
10
-3
20
5
30
4
11
-1
21
5
31
4
12
-3
22
5
32
2
13
-1
23
5
33
2
0
3DFACE
8
0
10
-3
20
3
30
4
11
-1
21
3
31
4
12
-3
22
5
32
4
13
-1
23
5
33
4
0
3DFACE
8
0
10
-3
20
3
30
2
11
-1
21
3
31
2
12
-3
22
5
32
2
13
-1
23
5
33
2
0
3DFACE
8
0
10
-3
20
5
30
4
11
-3
21
3
31
4
12
-3
22
5
32
2
13
-3
23
3
33
2
0
3DFACE
8
0
10
-1
20
5
30
4
11
-1
21
3
31
4
12
-1
22
5
32
2
13
-1
23
3
33
2
0
3DFACE
8
0
10
-3
20
3
30
4
11
-1
21
3
31
4
12
-3
22
3
32
2
13
-1
23
3
33
2
0
3DFACE
8
0
10
-3
20
5
30
5
11
-1
21
5
31
5
12
-3
22
5
32
3
13
-1
23
5
33
3
0
3DFACE
8
0
10
-3
20
3
30
5
11
-1
21
3
31
5
12
-3
22
5
32
5
13
-1
23
5
33
5
0
3DFACE
8
0
10
-3
20
3
30
3
11
-1
21
3
31
3
12
-3
22
5
32
3
13
-1
23
5
33
3
0
3DFACE
8
0
10
-3
20
5
30
5
11
-3
21
3
31
5
12
-3
22
5
32
3
13
-3
23
3
33
3
0
3DFACE
8
0
10
-1
20
5
30
5
11
-1
21
3
31
5
12
-1
22
5
32
3
13
-1
23
3
33
3
0
3DFACE
8
0
10
-3
20
3
30
5
11
-1
21
3
31
5
12
-3
22
3
32
3
13
-1
23
3
33
3
0
3DFACE
8
0
10
-2
20
5
30
3
11
0
21
5
31
3
12
-2
22
5
32
1
13
0
23
5
33
1
0
3DFACE
8
0
10
-2
20
3
30
3
11
0
21
3
31
3
12
-2
22
5
32
3
13
0
23
5
33
3
0
3DFACE
8
0
10
-2
20
3
30
1
11
0
21
3
31
1
12
-2
22
5
32
1
13
0
23
5
33
1
0
3DFACE
8
0
10
-2
20
5
30
3
11
-2
21
3
31
3
12
-2
22
5
32
1
13
-2
23
3
33
1
0
3DFACE
8
0
10
0
20
5
30
3
11
0
21
3
31
3
12
0
22
5
32
1
13
0
23
3
33
1
0
3DFACE
8
0
10
-2
20
3
30
3
11
0
21
3
31
3
12
-2
22
3
32
1
13
0
23
3
33
1
0
3DFACE
8
0
10
-2
20
5
30
4
11
0
21
5
31
4
12
-2
22
5
32
2
13
0
23
5
33
2
0
3DFACE
8
0
10
-2
20
3
30
4
11
0
21
3
31
4
12
-2
22
5
32
4
13
0
23
5
33
4
0
3DFACE
8
0
10
-2
20
3
30
2
11
0
21
3
31
2
12
-2
22
5
32
2
13
0
23
5
33
2
0
3DFACE
8
0
10
-2
20
5
30
4
11
-2
21
3
31
4
12
-2
22
5
32
2
13
-2
23
3
33
2
0
3DFACE
8
0
10
0
20
5
30
4
11
0
21
3
31
4
12
0
22
5
32
2
13
0
23
3
33
2
0
3DFACE
8
0
10
-2
20
3
30
4
11
0
21
3
31
4
12
-2
22
3
32
2
13
0
23
3
33
2
0
3DFACE
8
0
10
-2
20
5
30
5
11
0
21
5
31
5
12
-2
22
5
32
3
13
0
23
5
33
3
0
3DFACE
8
0
10
-2
20
3
30
5
11
0
21
3
31
5
12
-2
22
5
32
5
13
0
23
5
33
5
0
3DFACE
8
0
10
-2
20
3
30
3
11
0
21
3
31
3
12
-2
22
5
32
3
13
0
23
5
33
3
0
3DFACE
8
0
10
-2
20
5
30
5
11
-2
21
3
31
5
12
-2
22
5
32
3
13
-2
23
3
33
3
0
3DFACE
8
0
10
0
20
5
30
5
11
0
21
3
31
5
12
0
22
5
32
3
13
0
23
3
33
3
0
3DFACE
8
0
10
-2
20
3
30
5
11
0
21
3
31
5
12
-2
22
3
32
3
13
0
23
3
33
3
0
3DFACE
8
0
10
-1
20
5
30
3
11
1
21
5
31
3
12
-1
22
5
32
1
13
1
23
5
33
1
0
3DFACE
8
0
10
-1
20
3
30
3
11
1
21
3
31
3
12
-1
22
5
32
3
13
1
23
5
33
3
0
3DFACE
8
0
10
-1
20
3
30
1
11
1
21
3
31
1
12
-1
22
5
32
1
13
1
23
5
33
1
0
3DFACE
8
0
10
-1
20
5
30
3
11
-1
21
3
31
3
12
-1
22
5
32
1
13
-1
23
3
33
1
0
3DFACE
8
0
10
1
20
5
30
3
11
1
21
3
31
3
12
1
22
5
32
1
13
1
23
3
33
1
0
3DFACE
8
0
10
-1
20
3
30
3
11
1
21
3
31
3
12
-1
22
3
32
1
13
1
23
3
33
1
0
3DFACE
8
0
10
-1
20
5
30
4
11
1
21
5
31
4
12
-1
22
5
32
2
13
1
23
5
33
2
0
3DFACE
8
0
10
-1
20
3
30
4
11
1
21
3
31
4
12
-1
22
5
32
4
13
1
23
5
33
4
0
3DFACE
8
0
10
-1
20
3
30
2
11
1
21
3
31
2
12
-1
22
5
32
2
13
1
23
5
33
2
0
3DFACE
8
0
10
-1
20
5
30
4
11
-1
21
3
31
4
12
-1
22
5
32
2
13
-1
23
3
33
2
0
3DFACE
8
0
10
1
20
5
30
4
11
1
21
3
31
4
12
1
22
5
32
2
13
1
23
3
33
2
0
3DFACE
8
0
10
-1
20
3
30
4
11
1
21
3
31
4
12
-1
22
3
32
2
13
1
23
3
33
2
0
3DFACE
8
0
10
-1
20
5
30
5
11
1
21
5
31
5
12
-1
22
5
32
3
13
1
23
5
33
3
0
3DFACE
8
0
10
-1
20
3
30
5
11
1
21
3
31
5
12
-1
22
5
32
5
13
1
23
5
33
5
0
3DFACE
8
0
10
-1
20
3
30
3
11
1
21
3
31
3
12
-1
22
5
32
3
13
1
23
5
33
3
0
3DFACE
8
0
10
-1
20
5
30
5
11
-1
21
3
31
5
12
-1
22
5
32
3
13
-1
23
3
33
3
0
3DFACE
8
0
10
1
20
5
30
5
11
1
21
3
31
5
12
1
22
5
32
3
13
1
23
3
33
3
0
3DFACE
8
0
10
-1
20
3
30
5
11
1
21
3
31
5
12
-1
22
3
32
3
13
1
23
3
33
3
0
3DFACE
8
0
10
0
20
5
30
3
11
2
21
5
31
3
12
0
22
5
32
1
13
2
23
5
33
1
0
3DFACE
8
0
10
0
20
3
30
3
11
2
21
3
31
3
12
0
22
5
32
3
13
2
23
5
33
3
0
3DFACE
8
0
10
0
20
3
30
1
11
2
21
3
31
1
12
0
22
5
32
1
13
2
23
5
33
1
0
3DFACE
8
0
10
0
20
5
30
3
11
0
21
3
31
3
12
0
22
5
32
1
13
0
23
3
33
1
0
3DFACE
8
0
10
2
20
5
30
3
11
2
21
3
31
3
12
2
22
5
32
1
13
2
23
3
33
1
0
3DFACE
8
0
10
0
20
3
30
3
11
2
21
3
31
3
12
0
22
3
32
1
13
2
23
3
33
1
0
3DFACE
8
0
10
0
20
5
30
4
11
2
21
5
31
4
12
0
22
5
32
2
13
2
23
5
33
2
0
3DFACE
8
0
10
0
20
3
30
4
11
2
21
3
31
4
12
0
22
5
32
4
13
2
23
5
33
4
0
3DFACE
8
0
10
0
20
3
30
2
11
2
21
3
31
2
12
0
22
5
32
2
13
2
23
5
33
2
0
3DFACE
8
0
10
0
20
5
30
4
11
0
21
3
31
4
12
0
22
5
32
2
13
0
23
3
33
2
0
3DFACE
8
0
10
2
20
5
30
4
11
2
21
3
31
4
12
2
22
5
32
2
13
2
23
3
33
2
0
3DFACE
8
0
10
0
20
3
30
4
11
2
21
3
31
4
12
0
22
3
32
2
13
2
23
3
33
2
0
3DFACE
8
0
10
0
20
5
30
5
11
2
21
5
31
5
12
0
22
5
32
3
13
2
23
5
33
3
0
3DFACE
8
0
10
0
20
3
30
5
11
2
21
3
31
5
12
0
22
5
32
5
13
2
23
5
33
5
0
3DFACE
8
0
10
0
20
3
30
3
11
2
21
3
31
3
12
0
22
5
32
3
13
2
23
5
33
3
0
3DFACE
8
0
10
0
20
5
30
5
11
0
21
3
31
5
12
0
22
5
32
3
13
0
23
3
33
3
0
3DFACE
8
0
10
2
20
5
30
5
11
2
21
3
31
5
12
2
22
5
32
3
13
2
23
3
33
3
0
3DFACE
8
0
10
0
20
3
30
5
11
2
21
3
31
5
12
0
22
3
32
3
13
2
23
3
33
3
0
3DFACE
8
0
10
1
20
5
30
3
11
3
21
5
31
3
12
1
22
5
32
1
13
3
23
5
33
1
0
3DFACE
8
0
10
1
20
3
30
3
11
3
21
3
31
3
12
1
22
5
32
3
13
3
23
5
33
3
0
3DFACE
8
0
10
1
20
3
30
1
11
3
21
3
31
1
12
1
22
5
32
1
13
3
23
5
33
1
0
3DFACE
8
0
10
1
20
5
30
3
11
1
21
3
31
3
12
1
22
5
32
1
13
1
23
3
33
1
0
3DFACE
8
0
10
3
20
5
30
3
11
3
21
3
31
3
12
3
22
5
32
1
13
3
23
3
33
1
0
3DFACE
8
0
10
1
20
3
30
3
11
3
21
3
31
3
12
1
22
3
32
1
13
3
23
3
33
1
0
3DFACE
8
0
10
1
20
5
30
4
11
3
21
5
31
4
12
1
22
5
32
2
13
3
23
5
33
2
0
3DFACE
8
0
10
1
20
3
30
4
11
3
21
3
31
4
12
1
22
5
32
4
13
3
23
5
33
4
0
3DFACE
8
0
10
1
20
3
30
2
11
3
21
3
31
2
12
1
22
5
32
2
13
3
23
5
33
2
0
3DFACE
8
0
10
1
20
5
30
4
11
1
21
3
31
4
12
1
22
5
32
2
13
1
23
3
33
2
0
3DFACE
8
0
10
3
20
5
30
4
11
3
21
3
31
4
12
3
22
5
32
2
13
3
23
3
33
2
0
3DFACE
8
0
10
1
20
3
30
4
11
3
21
3
31
4
12
1
22
3
32
2
13
3
23
3
33
2
0
3DFACE
8
0
10
1
20
5
30
5
11
3
21
5
31
5
12
1
22
5
32
3
13
3
23
5
33
3
0
3DFACE
8
0
10
1
20
3
30
5
11
3
21
3
31
5
12
1
22
5
32
5
13
3
23
5
33
5
0
3DFACE
8
0
10
1
20
3
30
3
11
3
21
3
31
3
12
1
22
5
32
3
13
3
23
5
33
3
0
3DFACE
8
0
10
1
20
5
30
5
11
1
21
3
31
5
12
1
22
5
32
3
13
1
23
3
33
3
0
3DFACE
8
0
10
3
20
5
30
5
11
3
21
3
31
5
12
3
22
5
32
3
13
3
23
3
33
3
0
3DFACE
8
0
10
1
20
3
30
5
11
3
21
3
31
5
12
1
22
3
32
3
13
3
23
3
33
3
0
3DFACE
8
0
10
2
20
5
30
3
11
4
21
5
31
3
12
2
22
5
32
1
13
4
23
5
33
1
0
3DFACE
8
0
10
2
20
3
30
3
11
4
21
3
31
3
12
2
22
5
32
3
13
4
23
5
33
3
0
3DFACE
8
0
10
2
20
3
30
1
11
4
21
3
31
1
12
2
22
5
32
1
13
4
23
5
33
1
0
3DFACE
8
0
10
2
20
5
30
3
11
2
21
3
31
3
12
2
22
5
32
1
13
2
23
3
33
1
0
3DFACE
8
0
10
4
20
5
30
3
11
4
21
3
31
3
12
4
22
5
32
1
13
4
23
3
33
1
0
3DFACE
8
0
10
2
20
3
30
3
11
4
21
3
31
3
12
2
22
3
32
1
13
4
23
3
33
1
0
3DFACE
8
0
10
2
20
5
30
4
11
4
21
5
31
4
12
2
22
5
32
2
13
4
23
5
33
2
0
3DFACE
8
0
10
2
20
3
30
4
11
4
21
3
31
4
12
2
22
5
32
4
13
4
23
5
33
4
0
3DFACE
8
0
10
2
20
3
30
2
11
4
21
3
31
2
12
2
22
5
32
2
13
4
23
5
33
2
0
3DFACE
8
0
10
2
20
5
30
4
11
2
21
3
31
4
12
2
22
5
32
2
13
2
23
3
33
2
0
3DFACE
8
0
10
4
20
5
30
4
11
4
21
3
31
4
12
4
22
5
32
2
13
4
23
3
33
2
0
3DFACE
8
0
10
2
20
3
30
4
11
4
21
3
31
4
12
2
22
3
32
2
13
4
23
3
33
2
0
3DFACE
8
0
10
2
20
5
30
5
11
4
21
5
31
5
12
2
22
5
32
3
13
4
23
5
33
3
0
3DFACE
8
0
10
2
20
3
30
5
11
4
21
3
31
5
12
2
22
5
32
5
13
4
23
5
33
5
0
3DFACE
8
0
10
2
20
3
30
3
11
4
21
3
31
3
12
2
22
5
32
3
13
4
23
5
33
3
0
3DFACE
8
0
10
2
20
5
30
5
11
2
21
3
31
5
12
2
22
5
32
3
13
2
23
3
33
3
0
3DFACE
8
0
10
4
20
5
30
5
11
4
21
3
31
5
12
4
22
5
32
3
13
4
23
3
33
3
0
3DFACE
8
0
10
2
20
3
30
5
11
4
21
3
31
5
12
2
22
3
32
3
13
4
23
3
33
3
0
3DFACE
8
0
10
-4
20
2
30
5
11
-2
21
2
31
5
12
-4
22
2
32
3
13
-2
23
2
33
3
0
3DFACE
8
0
10
-4
20
0
30
5
11
-2
21
0
31
5
12
-4
22
2
32
5
13
-2
23
2
33
5
0
3DFACE
8
0
10
-4
20
0
30
3
11
-2
21
0
31
3
12
-4
22
2
32
3
13
-2
23
2
33
3
0
3DFACE
8
0
10
-4
20
2
30
5
11
-4
21
0
31
5
12
-4
22
2
32
3
13
-4
23
0
33
3
0
3DFACE
8
0
10
-2
20
2
30
5
11
-2
21
0
31
5
12
-2
22
2
32
3
13
-2
23
0
33
3
0
3DFACE
8
0
10
-4
20
0
30
5
11
-2
21
0
31
5
12
-4
22
0
32
3
13
-2
23
0
33
3
0
3DFACE
8
0
10
-4
20
3
30
5
11
-2
21
3
31
5
12
-4
22
3
32
3
13
-2
23
3
33
3
0
3DFACE
8
0
10
-4
20
1
30
5
11
-2
21
1
31
5
12
-4
22
3
32
5
13
-2
23
3
33
5
0
3DFACE
8
0
10
-4
20
1
30
3
11
-2
21
1
31
3
12
-4
22
3
32
3
13
-2
23
3
33
3
0
3DFACE
8
0
10
-4
20
3
30
5
11
-4
21
1
31
5
12
-4
22
3
32
3
13
-4
23
1
33
3
0
3DFACE
8
0
10
-2
20
3
30
5
11
-2
21
1
31
5
12
-2
22
3
32
3
13
-2
23
1
33
3
0
3DFACE
8
0
10
-4
20
1
30
5
11
-2
21
1
31
5
12
-4
22
1
32
3
13
-2
23
1
33
3
0
3DFACE
8
0
10
-3
20
2
30
5
11
-1
21
2
31
5
12
-3
22
2
32
3
13
-1
23
2
33
3
0
3DFACE
8
0
10
-3
20
0
30
5
11
-1
21
0
31
5
12
-3
22
2
32
5
13
-1
23
2
33
5
0
3DFACE
8
0
10
-3
20
0
30
3
11
-1
21
0
31
3
12
-3
22
2
32
3
13
-1
23
2
33
3
0
3DFACE
8
0
10
-3
20
2
30
5
11
-3
21
0
31
5
12
-3
22
2
32
3
13
-3
23
0
33
3
0
3DFACE
8
0
10
-1
20
2
30
5
11
-1
21
0
31
5
12
-1
22
2
32
3
13
-1
23
0
33
3
0
3DFACE
8
0
10
-3
20
0
30
5
11
-1
21
0
31
5
12
-3
22
0
32
3
13
-1
23
0
33
3
0
3DFACE
8
0
10
-3
20
3
30
5
11
-1
21
3
31
5
12
-3
22
3
32
3
13
-1
23
3
33
3
0
3DFACE
8
0
10
-3
20
1
30
5
11
-1
21
1
31
5
12
-3
22
3
32
5
13
-1
23
3
33
5
0
3DFACE
8
0
10
-3
20
1
30
3
11
-1
21
1
31
3
12
-3
22
3
32
3
13
-1
23
3
33
3
0
3DFACE
8
0
10
-3
20
3
30
5
11
-3
21
1
31
5
12
-3
22
3
32
3
13
-3
23
1
33
3
0
3DFACE
8
0
10
-1
20
3
30
5
11
-1
21
1
31
5
12
-1
22
3
32
3
13
-1
23
1
33
3
0
3DFACE
8
0
10
-3
20
1
30
5
11
-1
21
1
31
5
12
-3
22
1
32
3
13
-1
23
1
33
3
0
3DFACE
8
0
10
-2
20
2
30
5
11
0
21
2
31
5
12
-2
22
2
32
3
13
0
23
2
33
3
0
3DFACE
8
0
10
-2
20
0
30
5
11
0
21
0
31
5
12
-2
22
2
32
5
13
0
23
2
33
5
0
3DFACE
8
0
10
-2
20
0
30
3
11
0
21
0
31
3
12
-2
22
2
32
3
13
0
23
2
33
3
0
3DFACE
8
0
10
-2
20
2
30
5
11
-2
21
0
31
5
12
-2
22
2
32
3
13
-2
23
0
33
3
0
3DFACE
8
0
10
0
20
2
30
5
11
0
21
0
31
5
12
0
22
2
32
3
13
0
23
0
33
3
0
3DFACE
8
0
10
-2
20
0
30
5
11
0
21
0
31
5
12
-2
22
0
32
3
13
0
23
0
33
3
0
3DFACE
8
0
10
-2
20
3
30
5
11
0
21
3
31
5
12
-2
22
3
32
3
13
0
23
3
33
3
0
3DFACE
8
0
10
-2
20
1
30
5
11
0
21
1
31
5
12
-2
22
3
32
5
13
0
23
3
33
5
0
3DFACE
8
0
10
-2
20
1
30
3
11
0
21
1
31
3
12
-2
22
3
32
3
13
0
23
3
33
3
0
3DFACE
8
0
10
-2
20
3
30
5
11
-2
21
1
31
5
12
-2
22
3
32
3
13
-2
23
1
33
3
0
3DFACE
8
0
10
0
20
3
30
5
11
0
21
1
31
5
12
0
22
3
32
3
13
0
23
1
33
3
0
3DFACE
8
0
10
-2
20
1
30
5
11
0
21
1
31
5
12
-2
22
1
32
3
13
0
23
1
33
3
0
3DFACE
8
0
10
-1
20
2
30
5
11
1
21
2
31
5
12
-1
22
2
32
3
13
1
23
2
33
3
0
3DFACE
8
0
10
-1
20
0
30
5
11
1
21
0
31
5
12
-1
22
2
32
5
13
1
23
2
33
5
0
3DFACE
8
0
10
-1
20
0
30
3
11
1
21
0
31
3
12
-1
22
2
32
3
13
1
23
2
33
3
0
3DFACE
8
0
10
-1
20
2
30
5
11
-1
21
0
31
5
12
-1
22
2
32
3
13
-1
23
0
33
3
0
3DFACE
8
0
10
1
20
2
30
5
11
1
21
0
31
5
12
1
22
2
32
3
13
1
23
0
33
3
0
3DFACE
8
0
10
-1
20
0
30
5
11
1
21
0
31
5
12
-1
22
0
32
3
13
1
23
0
33
3
0
3DFACE
8
0
10
-1
20
3
30
5
11
1
21
3
31
5
12
-1
22
3
32
3
13
1
23
3
33
3
0
3DFACE
8
0
10
-1
20
1
30
5
11
1
21
1
31
5
12
-1
22
3
32
5
13
1
23
3
33
5
0
3DFACE
8
0
10
-1
20
1
30
3
11
1
21
1
31
3
12
-1
22
3
32
3
13
1
23
3
33
3
0
3DFACE
8
0
10
-1
20
3
30
5
11
-1
21
1
31
5
12
-1
22
3
32
3
13
-1
23
1
33
3
0
3DFACE
8
0
10
1
20
3
30
5
11
1
21
1
31
5
12
1
22
3
32
3
13
1
23
1
33
3
0
3DFACE
8
0
10
-1
20
1
30
5
11
1
21
1
31
5
12
-1
22
1
32
3
13
1
23
1
33
3
0
3DFACE
8
0
10
0
20
2
30
5
11
2
21
2
31
5
12
0
22
2
32
3
13
2
23
2
33
3
0
3DFACE
8
0
10
0
20
0
30
5
11
2
21
0
31
5
12
0
22
2
32
5
13
2
23
2
33
5
0
3DFACE
8
0
10
0
20
0
30
3
11
2
21
0
31
3
12
0
22
2
32
3
13
2
23
2
33
3
0
3DFACE
8
0
10
0
20
2
30
5
11
0
21
0
31
5
12
0
22
2
32
3
13
0
23
0
33
3
0
3DFACE
8
0
10
2
20
2
30
5
11
2
21
0
31
5
12
2
22
2
32
3
13
2
23
0
33
3
0
3DFACE
8
0
10
0
20
0
30
5
11
2
21
0
31
5
12
0
22
0
32
3
13
2
23
0
33
3
0
3DFACE
8
0
10
0
20
3
30
5
11
2
21
3
31
5
12
0
22
3
32
3
13
2
23
3
33
3
0
3DFACE
8
0
10
0
20
1
30
5
11
2
21
1
31
5
12
0
22
3
32
5
13
2
23
3
33
5
0
3DFACE
8
0
10
0
20
1
30
3
11
2
21
1
31
3
12
0
22
3
32
3
13
2
23
3
33
3
0
3DFACE
8
0
10
0
20
3
30
5
11
0
21
1
31
5
12
0
22
3
32
3
13
0
23
1
33
3
0
3DFACE
8
0
10
2
20
3
30
5
11
2
21
1
31
5
12
2
22
3
32
3
13
2
23
1
33
3
0
3DFACE
8
0
10
0
20
1
30
5
11
2
21
1
31
5
12
0
22
1
32
3
13
2
23
1
33
3
0
3DFACE
8
0
10
1
20
2
30
5
11
3
21
2
31
5
12
1
22
2
32
3
13
3
23
2
33
3
0
3DFACE
8
0
10
1
20
0
30
5
11
3
21
0
31
5
12
1
22
2
32
5
13
3
23
2
33
5
0
3DFACE
8
0
10
1
20
0
30
3
11
3
21
0
31
3
12
1
22
2
32
3
13
3
23
2
33
3
0
3DFACE
8
0
10
1
20
2
30
5
11
1
21
0
31
5
12
1
22
2
32
3
13
1
23
0
33
3
0
3DFACE
8
0
10
3
20
2
30
5
11
3
21
0
31
5
12
3
22
2
32
3
13
3
23
0
33
3
0
3DFACE
8
0
10
1
20
0
30
5
11
3
21
0
31
5
12
1
22
0
32
3
13
3
23
0
33
3
0
3DFACE
8
0
10
1
20
3
30
5
11
3
21
3
31
5
12
1
22
3
32
3
13
3
23
3
33
3
0
3DFACE
8
0
10
1
20
1
30
5
11
3
21
1
31
5
12
1
22
3
32
5
13
3
23
3
33
5
0
3DFACE
8
0
10
1
20
1
30
3
11
3
21
1
31
3
12
1
22
3
32
3
13
3
23
3
33
3
0
3DFACE
8
0
10
1
20
3
30
5
11
1
21
1
31
5
12
1
22
3
32
3
13
1
23
1
33
3
0
3DFACE
8
0
10
3
20
3
30
5
11
3
21
1
31
5
12
3
22
3
32
3
13
3
23
1
33
3
0
3DFACE
8
0
10
1
20
1
30
5
11
3
21
1
31
5
12
1
22
1
32
3
13
3
23
1
33
3
0
3DFACE
8
0
10
2
20
2
30
5
11
4
21
2
31
5
12
2
22
2
32
3
13
4
23
2
33
3
0
3DFACE
8
0
10
2
20
0
30
5
11
4
21
0
31
5
12
2
22
2
32
5
13
4
23
2
33
5
0
3DFACE
8
0
10
2
20
0
30
3
11
4
21
0
31
3
12
2
22
2
32
3
13
4
23
2
33
3
0
3DFACE
8
0
10
2
20
2
30
5
11
2
21
0
31
5
12
2
22
2
32
3
13
2
23
0
33
3
0
3DFACE
8
0
10
4
20
2
30
5
11
4
21
0
31
5
12
4
22
2
32
3
13
4
23
0
33
3
0
3DFACE
8
0
10
2
20
0
30
5
11
4
21
0
31
5
12
2
22
0
32
3
13
4
23
0
33
3
0
3DFACE
8
0
10
2
20
3
30
5
11
4
21
3
31
5
12
2
22
3
32
3
13
4
23
3
33
3
0
3DFACE
8
0
10
2
20
1
30
5
11
4
21
1
31
5
12
2
22
3
32
5
13
4
23
3
33
5
0
3DFACE
8
0
10
2
20
1
30
3
11
4
21
1
31
3
12
2
22
3
32
3
13
4
23
3
33
3
0
3DFACE
8
0
10
2
20
3
30
5
11
2
21
1
31
5
12
2
22
3
32
3
13
2
23
1
33
3
0
3DFACE
8
0
10
4
20
3
30
5
11
4
21
1
31
5
12
4
22
3
32
3
13
4
23
1
33
3
0
3DFACE
8
0
10
2
20
1
30
5
11
4
21
1
31
5
12
2
22
1
32
3
13
4
23
1
33
3
0
3DFACE
8
0
10
-4
20
4
30
5
11
-2
21
4
31
5
12
-4
22
4
32
3
13
-2
23
4
33
3
0
3DFACE
8
0
10
-4
20
2
30
5
11
-2
21
2
31
5
12
-4
22
4
32
5
13
-2
23
4
33
5
0
3DFACE
8
0
10
-4
20
2
30
3
11
-2
21
2
31
3
12
-4
22
4
32
3
13
-2
23
4
33
3
0
3DFACE
8
0
10
-4
20
4
30
5
11
-4
21
2
31
5
12
-4
22
4
32
3
13
-4
23
2
33
3
0
3DFACE
8
0
10
-2
20
4
30
5
11
-2
21
2
31
5
12
-2
22
4
32
3
13
-2
23
2
33
3
0
3DFACE
8
0
10
-4
20
2
30
5
11
-2
21
2
31
5
12
-4
22
2
32
3
13
-2
23
2
33
3
0
3DFACE
8
0
10
-3
20
4
30
5
11
-1
21
4
31
5
12
-3
22
4
32
3
13
-1
23
4
33
3
0
3DFACE
8
0
10
-3
20
2
30
5
11
-1
21
2
31
5
12
-3
22
4
32
5
13
-1
23
4
33
5
0
3DFACE
8
0
10
-3
20
2
30
3
11
-1
21
2
31
3
12
-3
22
4
32
3
13
-1
23
4
33
3
0
3DFACE
8
0
10
-3
20
4
30
5
11
-3
21
2
31
5
12
-3
22
4
32
3
13
-3
23
2
33
3
0
3DFACE
8
0
10
-1
20
4
30
5
11
-1
21
2
31
5
12
-1
22
4
32
3
13
-1
23
2
33
3
0
3DFACE
8
0
10
-3
20
2
30
5
11
-1
21
2
31
5
12
-3
22
2
32
3
13
-1
23
2
33
3
0
3DFACE
8
0
10
1
20
4
30
5
11
3
21
4
31
5
12
1
22
4
32
3
13
3
23
4
33
3
0
3DFACE
8
0
10
1
20
2
30
5
11
3
21
2
31
5
12
1
22
4
32
5
13
3
23
4
33
5
0
3DFACE
8
0
10
1
20
2
30
3
11
3
21
2
31
3
12
1
22
4
32
3
13
3
23
4
33
3
0
3DFACE
8
0
10
1
20
4
30
5
11
1
21
2
31
5
12
1
22
4
32
3
13
1
23
2
33
3
0
3DFACE
8
0
10
3
20
4
30
5
11
3
21
2
31
5
12
3
22
4
32
3
13
3
23
2
33
3
0
3DFACE
8
0
10
1
20
2
30
5
11
3
21
2
31
5
12
1
22
2
32
3
13
3
23
2
33
3
0
3DFACE
8
0
10
2
20
4
30
5
11
4
21
4
31
5
12
2
22
4
32
3
13
4
23
4
33
3
0
3DFACE
8
0
10
2
20
2
30
5
11
4
21
2
31
5
12
2
22
4
32
5
13
4
23
4
33
5
0
3DFACE
8
0
10
2
20
2
30
3
11
4
21
2
31
3
12
2
22
4
32
3
13
4
23
4
33
3
0
3DFACE
8
0
10
2
20
4
30
5
11
2
21
2
31
5
12
2
22
4
32
3
13
2
23
2
33
3
0
3DFACE
8
0
10
4
20
4
30
5
11
4
21
2
31
5
12
4
22
4
32
3
13
4
23
2
33
3
0
3DFACE
8
0
10
2
20
2
30
5
11
4
21
2
31
5
12
2
22
2
32
3
13
4
23
2
33
3
0
3DFACE
8
0
10
-2
20
1
30
-3
11
0
21
1
31
-3
12
-2
22
1
32
-5
13
0
23
1
33
-5
0
3DFACE
8
0
10
-2
20
-1
30
-3
11
0
21
-1
31
-3
12
-2
22
1
32
-3
13
0
23
1
33
-3
0
3DFACE
8
0
10
-2
20
-1
30
-5
11
0
21
-1
31
-5
12
-2
22
1
32
-5
13
0
23
1
33
-5
0
3DFACE
8
0
10
-2
20
1
30
-3
11
-2
21
-1
31
-3
12
-2
22
1
32
-5
13
-2
23
-1
33
-5
0
3DFACE
8
0
10
0
20
1
30
-3
11
0
21
-1
31
-3
12
0
22
1
32
-5
13
0
23
-1
33
-5
0
3DFACE
8
0
10
-2
20
-1
30
-3
11
0
21
-1
31
-3
12
-2
22
-1
32
-5
13
0
23
-1
33
-5
0
3DFACE
8
0
10
-1
20
1
30
-3
11
1
21
1
31
-3
12
-1
22
1
32
-5
13
1
23
1
33
-5
0
3DFACE
8
0
10
-1
20
-1
30
-3
11
1
21
-1
31
-3
12
-1
22
1
32
-3
13
1
23
1
33
-3
0
3DFACE
8
0
10
-1
20
-1
30
-5
11
1
21
-1
31
-5
12
-1
22
1
32
-5
13
1
23
1
33
-5
0
3DFACE
8
0
10
-1
20
1
30
-3
11
-1
21
-1
31
-3
12
-1
22
1
32
-5
13
-1
23
-1
33
-5
0
3DFACE
8
0
10
1
20
1
30
-3
11
1
21
-1
31
-3
12
1
22
1
32
-5
13
1
23
-1
33
-5
0
3DFACE
8
0
10
-1
20
-1
30
-3
11
1
21
-1
31
-3
12
-1
22
-1
32
-5
13
1
23
-1
33
-5
0
3DFACE
8
0
10
0
20
1
30
-3
11
2
21
1
31
-3
12
0
22
1
32
-5
13
2
23
1
33
-5
0
3DFACE
8
0
10
0
20
-1
30
-3
11
2
21
-1
31
-3
12
0
22
1
32
-3
13
2
23
1
33
-3
0
3DFACE
8
0
10
0
20
-1
30
-5
11
2
21
-1
31
-5
12
0
22
1
32
-5
13
2
23
1
33
-5
0
3DFACE
8
0
10
0
20
1
30
-3
11
0
21
-1
31
-3
12
0
22
1
32
-5
13
0
23
-1
33
-5
0
3DFACE
8
0
10
2
20
1
30
-3
11
2
21
-1
31
-3
12
2
22
1
32
-5
13
2
23
-1
33
-5
0
3DFACE
8
0
10
0
20
-1
30
-3
11
2
21
-1
31
-3
12
0
22
-1
32
-5
13
2
23
-1
33
-5
0
3DFACE
8
0
10
-3
20
1
30
-2
11
-1
21
1
31
-2
12
-3
22
1
32
-4
13
-1
23
1
33
-4
0
3DFACE
8
0
10
-3
20
-1
30
-2
11
-1
21
-1
31
-2
12
-3
22
1
32
-2
13
-1
23
1
33
-2
0
3DFACE
8
0
10
-3
20
-1
30
-4
11
-1
21
-1
31
-4
12
-3
22
1
32
-4
13
-1
23
1
33
-4
0
3DFACE
8
0
10
-3
20
1
30
-2
11
-3
21
-1
31
-2
12
-3
22
1
32
-4
13
-3
23
-1
33
-4
0
3DFACE
8
0
10
-1
20
1
30
-2
11
-1
21
-1
31
-2
12
-1
22
1
32
-4
13
-1
23
-1
33
-4
0
3DFACE
8
0
10
-3
20
-1
30
-2
11
-1
21
-1
31
-2
12
-3
22
-1
32
-4
13
-1
23
-1
33
-4
0
3DFACE
8
0
10
-3
20
1
30
-1
11
-1
21
1
31
-1
12
-3
22
1
32
-3
13
-1
23
1
33
-3
0
3DFACE
8
0
10
-3
20
-1
30
-1
11
-1
21
-1
31
-1
12
-3
22
1
32
-1
13
-1
23
1
33
-1
0
3DFACE
8
0
10
-3
20
-1
30
-3
11
-1
21
-1
31
-3
12
-3
22
1
32
-3
13
-1
23
1
33
-3
0
3DFACE
8
0
10
-3
20
1
30
-1
11
-3
21
-1
31
-1
12
-3
22
1
32
-3
13
-3
23
-1
33
-3
0
3DFACE
8
0
10
-1
20
1
30
-1
11
-1
21
-1
31
-1
12
-1
22
1
32
-3
13
-1
23
-1
33
-3
0
3DFACE
8
0
10
-3
20
-1
30
-1
11
-1
21
-1
31
-1
12
-3
22
-1
32
-3
13
-1
23
-1
33
-3
0
3DFACE
8
0
10
-3
20
1
30
0
11
-1
21
1
31
0
12
-3
22
1
32
-2
13
-1
23
1
33
-2
0
3DFACE
8
0
10
-3
20
-1
30
0
11
-1
21
-1
31
0
12
-3
22
1
32
0
13
-1
23
1
33
0
0
3DFACE
8
0
10
-3
20
-1
30
-2
11
-1
21
-1
31
-2
12
-3
22
1
32
-2
13
-1
23
1
33
-2
0
3DFACE
8
0
10
-3
20
1
30
0
11
-3
21
-1
31
0
12
-3
22
1
32
-2
13
-3
23
-1
33
-2
0
3DFACE
8
0
10
-1
20
1
30
0
11
-1
21
-1
31
0
12
-1
22
1
32
-2
13
-1
23
-1
33
-2
0
3DFACE
8
0
10
-3
20
-1
30
0
11
-1
21
-1
31
0
12
-3
22
-1
32
-2
13
-1
23
-1
33
-2
0
3DFACE
8
0
10
-3
20
1
30
1
11
-1
21
1
31
1
12
-3
22
1
32
-1
13
-1
23
1
33
-1
0
3DFACE
8
0
10
-3
20
-1
30
1
11
-1
21
-1
31
1
12
-3
22
1
32
1
13
-1
23
1
33
1
0
3DFACE
8
0
10
-3
20
-1
30
-1
11
-1
21
-1
31
-1
12
-3
22
1
32
-1
13
-1
23
1
33
-1
0
3DFACE
8
0
10
-3
20
1
30
1
11
-3
21
-1
31
1
12
-3
22
1
32
-1
13
-3
23
-1
33
-1
0
3DFACE
8
0
10
-1
20
1
30
1
11
-1
21
-1
31
1
12
-1
22
1
32
-1
13
-1
23
-1
33
-1
0
3DFACE
8
0
10
-3
20
-1
30
1
11
-1
21
-1
31
1
12
-3
22
-1
32
-1
13
-1
23
-1
33
-1
0
3DFACE
8
0
10
-3
20
1
30
2
11
-1
21
1
31
2
12
-3
22
1
32
0
13
-1
23
1
33
0
0
3DFACE
8
0
10
-3
20
-1
30
2
11
-1
21
-1
31
2
12
-3
22
1
32
2
13
-1
23
1
33
2
0
3DFACE
8
0
10
-3
20
-1
30
0
11
-1
21
-1
31
0
12
-3
22
1
32
0
13
-1
23
1
33
0
0
3DFACE
8
0
10
-3
20
1
30
2
11
-3
21
-1
31
2
12
-3
22
1
32
0
13
-3
23
-1
33
0
0
3DFACE
8
0
10
-1
20
1
30
2
11
-1
21
-1
31
2
12
-1
22
1
32
0
13
-1
23
-1
33
0
0
3DFACE
8
0
10
-3
20
-1
30
2
11
-1
21
-1
31
2
12
-3
22
-1
32
0
13
-1
23
-1
33
0
0
3DFACE
8
0
10
-3
20
1
30
3
11
-1
21
1
31
3
12
-3
22
1
32
1
13
-1
23
1
33
1
0
3DFACE
8
0
10
-3
20
-1
30
3
11
-1
21
-1
31
3
12
-3
22
1
32
3
13
-1
23
1
33
3
0
3DFACE
8
0
10
-3
20
-1
30
1
11
-1
21
-1
31
1
12
-3
22
1
32
1
13
-1
23
1
33
1
0
3DFACE
8
0
10
-3
20
1
30
3
11
-3
21
-1
31
3
12
-3
22
1
32
1
13
-3
23
-1
33
1
0
3DFACE
8
0
10
-1
20
1
30
3
11
-1
21
-1
31
3
12
-1
22
1
32
1
13
-1
23
-1
33
1
0
3DFACE
8
0
10
-3
20
-1
30
3
11
-1
21
-1
31
3
12
-3
22
-1
32
1
13
-1
23
-1
33
1
0
3DFACE
8
0
10
-3
20
1
30
4
11
-1
21
1
31
4
12
-3
22
1
32
2
13
-1
23
1
33
2
0
3DFACE
8
0
10
-3
20
-1
30
4
11
-1
21
-1
31
4
12
-3
22
1
32
4
13
-1
23
1
33
4
0
3DFACE
8
0
10
-3
20
-1
30
2
11
-1
21
-1
31
2
12
-3
22
1
32
2
13
-1
23
1
33
2
0
3DFACE
8
0
10
-3
20
1
30
4
11
-3
21
-1
31
4
12
-3
22
1
32
2
13
-3
23
-1
33
2
0
3DFACE
8
0
10
-1
20
1
30
4
11
-1
21
-1
31
4
12
-1
22
1
32
2
13
-1
23
-1
33
2
0
3DFACE
8
0
10
-3
20
-1
30
4
11
-1
21
-1
31
4
12
-3
22
-1
32
2
13
-1
23
-1
33
2
0
3DFACE
8
0
10
-2
20
1
30
-2
11
0
21
1
31
-2
12
-2
22
1
32
-4
13
0
23
1
33
-4
0
3DFACE
8
0
10
-2
20
-1
30
-2
11
0
21
-1
31
-2
12
-2
22
1
32
-2
13
0
23
1
33
-2
0
3DFACE
8
0
10
-2
20
-1
30
-4
11
0
21
-1
31
-4
12
-2
22
1
32
-4
13
0
23
1
33
-4
0
3DFACE
8
0
10
-2
20
1
30
-2
11
-2
21
-1
31
-2
12
-2
22
1
32
-4
13
-2
23
-1
33
-4
0
3DFACE
8
0
10
0
20
1
30
-2
11
0
21
-1
31
-2
12
0
22
1
32
-4
13
0
23
-1
33
-4
0
3DFACE
8
0
10
-2
20
-1
30
-2
11
0
21
-1
31
-2
12
-2
22
-1
32
-4
13
0
23
-1
33
-4
0
3DFACE
8
0
10
-2
20
1
30
-1
11
0
21
1
31
-1
12
-2
22
1
32
-3
13
0
23
1
33
-3
0
3DFACE
8
0
10
-2
20
-1
30
-1
11
0
21
-1
31
-1
12
-2
22
1
32
-1
13
0
23
1
33
-1
0
3DFACE
8
0
10
-2
20
-1
30
-3
11
0
21
-1
31
-3
12
-2
22
1
32
-3
13
0
23
1
33
-3
0
3DFACE
8
0
10
-2
20
1
30
-1
11
-2
21
-1
31
-1
12
-2
22
1
32
-3
13
-2
23
-1
33
-3
0
3DFACE
8
0
10
0
20
1
30
-1
11
0
21
-1
31
-1
12
0
22
1
32
-3
13
0
23
-1
33
-3
0
3DFACE
8
0
10
-2
20
-1
30
-1
11
0
21
-1
31
-1
12
-2
22
-1
32
-3
13
0
23
-1
33
-3
0
3DFACE
8
0
10
-2
20
1
30
0
11
0
21
1
31
0
12
-2
22
1
32
-2
13
0
23
1
33
-2
0
3DFACE
8
0
10
-2
20
-1
30
0
11
0
21
-1
31
0
12
-2
22
1
32
0
13
0
23
1
33
0
0
3DFACE
8
0
10
-2
20
-1
30
-2
11
0
21
-1
31
-2
12
-2
22
1
32
-2
13
0
23
1
33
-2
0
3DFACE
8
0
10
-2
20
1
30
0
11
-2
21
-1
31
0
12
-2
22
1
32
-2
13
-2
23
-1
33
-2
0
3DFACE
8
0
10
0
20
1
30
0
11
0
21
-1
31
0
12
0
22
1
32
-2
13
0
23
-1
33
-2
0
3DFACE
8
0
10
-2
20
-1
30
0
11
0
21
-1
31
0
12
-2
22
-1
32
-2
13
0
23
-1
33
-2
0
3DFACE
8
0
10
-2
20
1
30
1
11
0
21
1
31
1
12
-2
22
1
32
-1
13
0
23
1
33
-1
0
3DFACE
8
0
10
-2
20
-1
30
1
11
0
21
-1
31
1
12
-2
22
1
32
1
13
0
23
1
33
1
0
3DFACE
8
0
10
-2
20
-1
30
-1
11
0
21
-1
31
-1
12
-2
22
1
32
-1
13
0
23
1
33
-1
0
3DFACE
8
0
10
-2
20
1
30
1
11
-2
21
-1
31
1
12
-2
22
1
32
-1
13
-2
23
-1
33
-1
0
3DFACE
8
0
10
0
20
1
30
1
11
0
21
-1
31
1
12
0
22
1
32
-1
13
0
23
-1
33
-1
0
3DFACE
8
0
10
-2
20
-1
30
1
11
0
21
-1
31
1
12
-2
22
-1
32
-1
13
0
23
-1
33
-1
0
3DFACE
8
0
10
-2
20
1
30
2
11
0
21
1
31
2
12
-2
22
1
32
0
13
0
23
1
33
0
0
3DFACE
8
0
10
-2
20
-1
30
2
11
0
21
-1
31
2
12
-2
22
1
32
2
13
0
23
1
33
2
0
3DFACE
8
0
10
-2
20
-1
30
0
11
0
21
-1
31
0
12
-2
22
1
32
0
13
0
23
1
33
0
0
3DFACE
8
0
10
-2
20
1
30
2
11
-2
21
-1
31
2
12
-2
22
1
32
0
13
-2
23
-1
33
0
0
3DFACE
8
0
10
0
20
1
30
2
11
0
21
-1
31
2
12
0
22
1
32
0
13
0
23
-1
33
0
0
3DFACE
8
0
10
-2
20
-1
30
2
11
0
21
-1
31
2
12
-2
22
-1
32
0
13
0
23
-1
33
0
0
3DFACE
8
0
10
-2
20
1
30
3
11
0
21
1
31
3
12
-2
22
1
32
1
13
0
23
1
33
1
0
3DFACE
8
0
10
-2
20
-1
30
3
11
0
21
-1
31
3
12
-2
22
1
32
3
13
0
23
1
33
3
0
3DFACE
8
0
10
-2
20
-1
30
1
11
0
21
-1
31
1
12
-2
22
1
32
1
13
0
23
1
33
1
0
3DFACE
8
0
10
-2
20
1
30
3
11
-2
21
-1
31
3
12
-2
22
1
32
1
13
-2
23
-1
33
1
0
3DFACE
8
0
10
0
20
1
30
3
11
0
21
-1
31
3
12
0
22
1
32
1
13
0
23
-1
33
1
0
3DFACE
8
0
10
-2
20
-1
30
3
11
0
21
-1
31
3
12
-2
22
-1
32
1
13
0
23
-1
33
1
0
3DFACE
8
0
10
-2
20
1
30
4
11
0
21
1
31
4
12
-2
22
1
32
2
13
0
23
1
33
2
0
3DFACE
8
0
10
-2
20
-1
30
4
11
0
21
-1
31
4
12
-2
22
1
32
4
13
0
23
1
33
4
0
3DFACE
8
0
10
-2
20
-1
30
2
11
0
21
-1
31
2
12
-2
22
1
32
2
13
0
23
1
33
2
0
3DFACE
8
0
10
-2
20
1
30
4
11
-2
21
-1
31
4
12
-2
22
1
32
2
13
-2
23
-1
33
2
0
3DFACE
8
0
10
0
20
1
30
4
11
0
21
-1
31
4
12
0
22
1
32
2
13
0
23
-1
33
2
0
3DFACE
8
0
10
-2
20
-1
30
4
11
0
21
-1
31
4
12
-2
22
-1
32
2
13
0
23
-1
33
2
0
3DFACE
8
0
10
-1
20
1
30
-2
11
1
21
1
31
-2
12
-1
22
1
32
-4
13
1
23
1
33
-4
0
3DFACE
8
0
10
-1
20
-1
30
-2
11
1
21
-1
31
-2
12
-1
22
1
32
-2
13
1
23
1
33
-2
0
3DFACE
8
0
10
-1
20
-1
30
-4
11
1
21
-1
31
-4
12
-1
22
1
32
-4
13
1
23
1
33
-4
0
3DFACE
8
0
10
-1
20
1
30
-2
11
-1
21
-1
31
-2
12
-1
22
1
32
-4
13
-1
23
-1
33
-4
0
3DFACE
8
0
10
1
20
1
30
-2
11
1
21
-1
31
-2
12
1
22
1
32
-4
13
1
23
-1
33
-4
0
3DFACE
8
0
10
-1
20
-1
30
-2
11
1
21
-1
31
-2
12
-1
22
-1
32
-4
13
1
23
-1
33
-4
0
3DFACE
8
0
10
-1
20
1
30
-1
11
1
21
1
31
-1
12
-1
22
1
32
-3
13
1
23
1
33
-3
0
3DFACE
8
0
10
-1
20
-1
30
-1
11
1
21
-1
31
-1
12
-1
22
1
32
-1
13
1
23
1
33
-1
0
3DFACE
8
0
10
-1
20
-1
30
-3
11
1
21
-1
31
-3
12
-1
22
1
32
-3
13
1
23
1
33
-3
0
3DFACE
8
0
10
-1
20
1
30
-1
11
-1
21
-1
31
-1
12
-1
22
1
32
-3
13
-1
23
-1
33
-3
0
3DFACE
8
0
10
1
20
1
30
-1
11
1
21
-1
31
-1
12
1
22
1
32
-3
13
1
23
-1
33
-3
0
3DFACE
8
0
10
-1
20
-1
30
-1
11
1
21
-1
31
-1
12
-1
22
-1
32
-3
13
1
23
-1
33
-3
0
3DFACE
8
0
10
-1
20
1
30
0
11
1
21
1
31
0
12
-1
22
1
32
-2
13
1
23
1
33
-2
0
3DFACE
8
0
10
-1
20
-1
30
0
11
1
21
-1
31
0
12
-1
22
1
32
0
13
1
23
1
33
0
0
3DFACE
8
0
10
-1
20
-1
30
-2
11
1
21
-1
31
-2
12
-1
22
1
32
-2
13
1
23
1
33
-2
0
3DFACE
8
0
10
-1
20
1
30
0
11
-1
21
-1
31
0
12
-1
22
1
32
-2
13
-1
23
-1
33
-2
0
3DFACE
8
0
10
1
20
1
30
0
11
1
21
-1
31
0
12
1
22
1
32
-2
13
1
23
-1
33
-2
0
3DFACE
8
0
10
-1
20
-1
30
0
11
1
21
-1
31
0
12
-1
22
-1
32
-2
13
1
23
-1
33
-2
0
3DFACE
8
0
10
-1
20
1
30
1
11
1
21
1
31
1
12
-1
22
1
32
-1
13
1
23
1
33
-1
0
3DFACE
8
0
10
-1
20
-1
30
1
11
1
21
-1
31
1
12
-1
22
1
32
1
13
1
23
1
33
1
0
3DFACE
8
0
10
-1
20
-1
30
-1
11
1
21
-1
31
-1
12
-1
22
1
32
-1
13
1
23
1
33
-1
0
3DFACE
8
0
10
-1
20
1
30
1
11
-1
21
-1
31
1
12
-1
22
1
32
-1
13
-1
23
-1
33
-1
0
3DFACE
8
0
10
1
20
1
30
1
11
1
21
-1
31
1
12
1
22
1
32
-1
13
1
23
-1
33
-1
0
3DFACE
8
0
10
-1
20
-1
30
1
11
1
21
-1
31
1
12
-1
22
-1
32
-1
13
1
23
-1
33
-1
0
3DFACE
8
0
10
-1
20
1
30
2
11
1
21
1
31
2
12
-1
22
1
32
0
13
1
23
1
33
0
0
3DFACE
8
0
10
-1
20
-1
30
2
11
1
21
-1
31
2
12
-1
22
1
32
2
13
1
23
1
33
2
0
3DFACE
8
0
10
-1
20
-1
30
0
11
1
21
-1
31
0
12
-1
22
1
32
0
13
1
23
1
33
0
0
3DFACE
8
0
10
-1
20
1
30
2
11
-1
21
-1
31
2
12
-1
22
1
32
0
13
-1
23
-1
33
0
0
3DFACE
8
0
10
1
20
1
30
2
11
1
21
-1
31
2
12
1
22
1
32
0
13
1
23
-1
33
0
0
3DFACE
8
0
10
-1
20
-1
30
2
11
1
21
-1
31
2
12
-1
22
-1
32
0
13
1
23
-1
33
0
0
3DFACE
8
0
10
-1
20
1
30
3
11
1
21
1
31
3
12
-1
22
1
32
1
13
1
23
1
33
1
0
3DFACE
8
0
10
-1
20
-1
30
3
11
1
21
-1
31
3
12
-1
22
1
32
3
13
1
23
1
33
3
0
3DFACE
8
0
10
-1
20
-1
30
1
11
1
21
-1
31
1
12
-1
22
1
32
1
13
1
23
1
33
1
0
3DFACE
8
0
10
-1
20
1
30
3
11
-1
21
-1
31
3
12
-1
22
1
32
1
13
-1
23
-1
33
1
0
3DFACE
8
0
10
1
20
1
30
3
11
1
21
-1
31
3
12
1
22
1
32
1
13
1
23
-1
33
1
0
3DFACE
8
0
10
-1
20
-1
30
3
11
1
21
-1
31
3
12
-1
22
-1
32
1
13
1
23
-1
33
1
0
3DFACE
8
0
10
-1
20
1
30
4
11
1
21
1
31
4
12
-1
22
1
32
2
13
1
23
1
33
2
0
3DFACE
8
0
10
-1
20
-1
30
4
11
1
21
-1
31
4
12
-1
22
1
32
4
13
1
23
1
33
4
0
3DFACE
8
0
10
-1
20
-1
30
2
11
1
21
-1
31
2
12
-1
22
1
32
2
13
1
23
1
33
2
0
3DFACE
8
0
10
-1
20
1
30
4
11
-1
21
-1
31
4
12
-1
22
1
32
2
13
-1
23
-1
33
2
0
3DFACE
8
0
10
1
20
1
30
4
11
1
21
-1
31
4
12
1
22
1
32
2
13
1
23
-1
33
2
0
3DFACE
8
0
10
-1
20
-1
30
4
11
1
21
-1
31
4
12
-1
22
-1
32
2
13
1
23
-1
33
2
0
3DFACE
8
0
10
0
20
1
30
-2
11
2
21
1
31
-2
12
0
22
1
32
-4
13
2
23
1
33
-4
0
3DFACE
8
0
10
0
20
-1
30
-2
11
2
21
-1
31
-2
12
0
22
1
32
-2
13
2
23
1
33
-2
0
3DFACE
8
0
10
0
20
-1
30
-4
11
2
21
-1
31
-4
12
0
22
1
32
-4
13
2
23
1
33
-4
0
3DFACE
8
0
10
0
20
1
30
-2
11
0
21
-1
31
-2
12
0
22
1
32
-4
13
0
23
-1
33
-4
0
3DFACE
8
0
10
2
20
1
30
-2
11
2
21
-1
31
-2
12
2
22
1
32
-4
13
2
23
-1
33
-4
0
3DFACE
8
0
10
0
20
-1
30
-2
11
2
21
-1
31
-2
12
0
22
-1
32
-4
13
2
23
-1
33
-4
0
3DFACE
8
0
10
0
20
1
30
-1
11
2
21
1
31
-1
12
0
22
1
32
-3
13
2
23
1
33
-3
0
3DFACE
8
0
10
0
20
-1
30
-1
11
2
21
-1
31
-1
12
0
22
1
32
-1
13
2
23
1
33
-1
0
3DFACE
8
0
10
0
20
-1
30
-3
11
2
21
-1
31
-3
12
0
22
1
32
-3
13
2
23
1
33
-3
0
3DFACE
8
0
10
0
20
1
30
-1
11
0
21
-1
31
-1
12
0
22
1
32
-3
13
0
23
-1
33
-3
0
3DFACE
8
0
10
2
20
1
30
-1
11
2
21
-1
31
-1
12
2
22
1
32
-3
13
2
23
-1
33
-3
0
3DFACE
8
0
10
0
20
-1
30
-1
11
2
21
-1
31
-1
12
0
22
-1
32
-3
13
2
23
-1
33
-3
0
3DFACE
8
0
10
0
20
1
30
0
11
2
21
1
31
0
12
0
22
1
32
-2
13
2
23
1
33
-2
0
3DFACE
8
0
10
0
20
-1
30
0
11
2
21
-1
31
0
12
0
22
1
32
0
13
2
23
1
33
0
0
3DFACE
8
0
10
0
20
-1
30
-2
11
2
21
-1
31
-2
12
0
22
1
32
-2
13
2
23
1
33
-2
0
3DFACE
8
0
10
0
20
1
30
0
11
0
21
-1
31
0
12
0
22
1
32
-2
13
0
23
-1
33
-2
0
3DFACE
8
0
10
2
20
1
30
0
11
2
21
-1
31
0
12
2
22
1
32
-2
13
2
23
-1
33
-2
0
3DFACE
8
0
10
0
20
-1
30
0
11
2
21
-1
31
0
12
0
22
-1
32
-2
13
2
23
-1
33
-2
0
3DFACE
8
0
10
0
20
1
30
1
11
2
21
1
31
1
12
0
22
1
32
-1
13
2
23
1
33
-1
0
3DFACE
8
0
10
0
20
-1
30
1
11
2
21
-1
31
1
12
0
22
1
32
1
13
2
23
1
33
1
0
3DFACE
8
0
10
0
20
-1
30
-1
11
2
21
-1
31
-1
12
0
22
1
32
-1
13
2
23
1
33
-1
0
3DFACE
8
0
10
0
20
1
30
1
11
0
21
-1
31
1
12
0
22
1
32
-1
13
0
23
-1
33
-1
0
3DFACE
8
0
10
2
20
1
30
1
11
2
21
-1
31
1
12
2
22
1
32
-1
13
2
23
-1
33
-1
0
3DFACE
8
0
10
0
20
-1
30
1
11
2
21
-1
31
1
12
0
22
-1
32
-1
13
2
23
-1
33
-1
0
3DFACE
8
0
10
0
20
1
30
2
11
2
21
1
31
2
12
0
22
1
32
0
13
2
23
1
33
0
0
3DFACE
8
0
10
0
20
-1
30
2
11
2
21
-1
31
2
12
0
22
1
32
2
13
2
23
1
33
2
0
3DFACE
8
0
10
0
20
-1
30
0
11
2
21
-1
31
0
12
0
22
1
32
0
13
2
23
1
33
0
0
3DFACE
8
0
10
0
20
1
30
2
11
0
21
-1
31
2
12
0
22
1
32
0
13
0
23
-1
33
0
0
3DFACE
8
0
10
2
20
1
30
2
11
2
21
-1
31
2
12
2
22
1
32
0
13
2
23
-1
33
0
0
3DFACE
8
0
10
0
20
-1
30
2
11
2
21
-1
31
2
12
0
22
-1
32
0
13
2
23
-1
33
0
0
3DFACE
8
0
10
0
20
1
30
3
11
2
21
1
31
3
12
0
22
1
32
1
13
2
23
1
33
1
0
3DFACE
8
0
10
0
20
-1
30
3
11
2
21
-1
31
3
12
0
22
1
32
3
13
2
23
1
33
3
0
3DFACE
8
0
10
0
20
-1
30
1
11
2
21
-1
31
1
12
0
22
1
32
1
13
2
23
1
33
1
0
3DFACE
8
0
10
0
20
1
30
3
11
0
21
-1
31
3
12
0
22
1
32
1
13
0
23
-1
33
1
0
3DFACE
8
0
10
2
20
1
30
3
11
2
21
-1
31
3
12
2
22
1
32
1
13
2
23
-1
33
1
0
3DFACE
8
0
10
0
20
-1
30
3
11
2
21
-1
31
3
12
0
22
-1
32
1
13
2
23
-1
33
1
0
3DFACE
8
0
10
0
20
1
30
4
11
2
21
1
31
4
12
0
22
1
32
2
13
2
23
1
33
2
0
3DFACE
8
0
10
0
20
-1
30
4
11
2
21
-1
31
4
12
0
22
1
32
4
13
2
23
1
33
4
0
3DFACE
8
0
10
0
20
-1
30
2
11
2
21
-1
31
2
12
0
22
1
32
2
13
2
23
1
33
2
0
3DFACE
8
0
10
0
20
1
30
4
11
0
21
-1
31
4
12
0
22
1
32
2
13
0
23
-1
33
2
0
3DFACE
8
0
10
2
20
1
30
4
11
2
21
-1
31
4
12
2
22
1
32
2
13
2
23
-1
33
2
0
3DFACE
8
0
10
0
20
-1
30
4
11
2
21
-1
31
4
12
0
22
-1
32
2
13
2
23
-1
33
2
0
3DFACE
8
0
10
1
20
1
30
-2
11
3
21
1
31
-2
12
1
22
1
32
-4
13
3
23
1
33
-4
0
3DFACE
8
0
10
1
20
-1
30
-2
11
3
21
-1
31
-2
12
1
22
1
32
-2
13
3
23
1
33
-2
0
3DFACE
8
0
10
1
20
-1
30
-4
11
3
21
-1
31
-4
12
1
22
1
32
-4
13
3
23
1
33
-4
0
3DFACE
8
0
10
1
20
1
30
-2
11
1
21
-1
31
-2
12
1
22
1
32
-4
13
1
23
-1
33
-4
0
3DFACE
8
0
10
3
20
1
30
-2
11
3
21
-1
31
-2
12
3
22
1
32
-4
13
3
23
-1
33
-4
0
3DFACE
8
0
10
1
20
-1
30
-2
11
3
21
-1
31
-2
12
1
22
-1
32
-4
13
3
23
-1
33
-4
0
3DFACE
8
0
10
1
20
1
30
-1
11
3
21
1
31
-1
12
1
22
1
32
-3
13
3
23
1
33
-3
0
3DFACE
8
0
10
1
20
-1
30
-1
11
3
21
-1
31
-1
12
1
22
1
32
-1
13
3
23
1
33
-1
0
3DFACE
8
0
10
1
20
-1
30
-3
11
3
21
-1
31
-3
12
1
22
1
32
-3
13
3
23
1
33
-3
0
3DFACE
8
0
10
1
20
1
30
-1
11
1
21
-1
31
-1
12
1
22
1
32
-3
13
1
23
-1
33
-3
0
3DFACE
8
0
10
3
20
1
30
-1
11
3
21
-1
31
-1
12
3
22
1
32
-3
13
3
23
-1
33
-3
0
3DFACE
8
0
10
1
20
-1
30
-1
11
3
21
-1
31
-1
12
1
22
-1
32
-3
13
3
23
-1
33
-3
0
3DFACE
8
0
10
1
20
1
30
0
11
3
21
1
31
0
12
1
22
1
32
-2
13
3
23
1
33
-2
0
3DFACE
8
0
10
1
20
-1
30
0
11
3
21
-1
31
0
12
1
22
1
32
0
13
3
23
1
33
0
0
3DFACE
8
0
10
1
20
-1
30
-2
11
3
21
-1
31
-2
12
1
22
1
32
-2
13
3
23
1
33
-2
0
3DFACE
8
0
10
1
20
1
30
0
11
1
21
-1
31
0
12
1
22
1
32
-2
13
1
23
-1
33
-2
0
3DFACE
8
0
10
3
20
1
30
0
11
3
21
-1
31
0
12
3
22
1
32
-2
13
3
23
-1
33
-2
0
3DFACE
8
0
10
1
20
-1
30
0
11
3
21
-1
31
0
12
1
22
-1
32
-2
13
3
23
-1
33
-2
0
3DFACE
8
0
10
1
20
1
30
1
11
3
21
1
31
1
12
1
22
1
32
-1
13
3
23
1
33
-1
0
3DFACE
8
0
10
1
20
-1
30
1
11
3
21
-1
31
1
12
1
22
1
32
1
13
3
23
1
33
1
0
3DFACE
8
0
10
1
20
-1
30
-1
11
3
21
-1
31
-1
12
1
22
1
32
-1
13
3
23
1
33
-1
0
3DFACE
8
0
10
1
20
1
30
1
11
1
21
-1
31
1
12
1
22
1
32
-1
13
1
23
-1
33
-1
0
3DFACE
8
0
10
3
20
1
30
1
11
3
21
-1
31
1
12
3
22
1
32
-1
13
3
23
-1
33
-1
0
3DFACE
8
0
10
1
20
-1
30
1
11
3
21
-1
31
1
12
1
22
-1
32
-1
13
3
23
-1
33
-1
0
3DFACE
8
0
10
1
20
1
30
2
11
3
21
1
31
2
12
1
22
1
32
0
13
3
23
1
33
0
0
3DFACE
8
0
10
1
20
-1
30
2
11
3
21
-1
31
2
12
1
22
1
32
2
13
3
23
1
33
2
0
3DFACE
8
0
10
1
20
-1
30
0
11
3
21
-1
31
0
12
1
22
1
32
0
13
3
23
1
33
0
0
3DFACE
8
0
10
1
20
1
30
2
11
1
21
-1
31
2
12
1
22
1
32
0
13
1
23
-1
33
0
0
3DFACE
8
0
10
3
20
1
30
2
11
3
21
-1
31
2
12
3
22
1
32
0
13
3
23
-1
33
0
0
3DFACE
8
0
10
1
20
-1
30
2
11
3
21
-1
31
2
12
1
22
-1
32
0
13
3
23
-1
33
0
0
3DFACE
8
0
10
1
20
1
30
3
11
3
21
1
31
3
12
1
22
1
32
1
13
3
23
1
33
1
0
3DFACE
8
0
10
1
20
-1
30
3
11
3
21
-1
31
3
12
1
22
1
32
3
13
3
23
1
33
3
0
3DFACE
8
0
10
1
20
-1
30
1
11
3
21
-1
31
1
12
1
22
1
32
1
13
3
23
1
33
1
0
3DFACE
8
0
10
1
20
1
30
3
11
1
21
-1
31
3
12
1
22
1
32
1
13
1
23
-1
33
1
0
3DFACE
8
0
10
3
20
1
30
3
11
3
21
-1
31
3
12
3
22
1
32
1
13
3
23
-1
33
1
0
3DFACE
8
0
10
1
20
-1
30
3
11
3
21
-1
31
3
12
1
22
-1
32
1
13
3
23
-1
33
1
0
3DFACE
8
0
10
1
20
1
30
4
11
3
21
1
31
4
12
1
22
1
32
2
13
3
23
1
33
2
0
3DFACE
8
0
10
1
20
-1
30
4
11
3
21
-1
31
4
12
1
22
1
32
4
13
3
23
1
33
4
0
3DFACE
8
0
10
1
20
-1
30
2
11
3
21
-1
31
2
12
1
22
1
32
2
13
3
23
1
33
2
0
3DFACE
8
0
10
1
20
1
30
4
11
1
21
-1
31
4
12
1
22
1
32
2
13
1
23
-1
33
2
0
3DFACE
8
0
10
3
20
1
30
4
11
3
21
-1
31
4
12
3
22
1
32
2
13
3
23
-1
33
2
0
3DFACE
8
0
10
1
20
-1
30
4
11
3
21
-1
31
4
12
1
22
-1
32
2
13
3
23
-1
33
2
0
3DFACE
8
0
10
-1
20
5
30
0
11
1
21
5
31
0
12
-1
22
5
32
-2
13
1
23
5
33
-2
0
3DFACE
8
0
10
-1
20
3
30
0
11
1
21
3
31
0
12
-1
22
5
32
0
13
1
23
5
33
0
0
3DFACE
8
0
10
-1
20
3
30
-2
11
1
21
3
31
-2
12
-1
22
5
32
-2
13
1
23
5
33
-2
0
3DFACE
8
0
10
-1
20
5
30
0
11
-1
21
3
31
0
12
-1
22
5
32
-2
13
-1
23
3
33
-2
0
3DFACE
8
0
10
1
20
5
30
0
11
1
21
3
31
0
12
1
22
5
32
-2
13
1
23
3
33
-2
0
3DFACE
8
0
10
-1
20
3
30
0
11
1
21
3
31
0
12
-1
22
3
32
-2
13
1
23
3
33
-2
0
3DFACE
8
0
10
-1
20
5
30
1
11
1
21
5
31
1
12
-1
22
5
32
-1
13
1
23
5
33
-1
0
3DFACE
8
0
10
-1
20
3
30
1
11
1
21
3
31
1
12
-1
22
5
32
1
13
1
23
5
33
1
0
3DFACE
8
0
10
-1
20
3
30
-1
11
1
21
3
31
-1
12
-1
22
5
32
-1
13
1
23
5
33
-1
0
3DFACE
8
0
10
-1
20
5
30
1
11
-1
21
3
31
1
12
-1
22
5
32
-1
13
-1
23
3
33
-1
0
3DFACE
8
0
10
1
20
5
30
1
11
1
21
3
31
1
12
1
22
5
32
-1
13
1
23
3
33
-1
0
3DFACE
8
0
10
-1
20
3
30
1
11
1
21
3
31
1
12
-1
22
3
32
-1
13
1
23
3
33
-1
0
3DFACE
8
0
10
-1
20
5
30
2
11
1
21
5
31
2
12
-1
22
5
32
0
13
1
23
5
33
0
0
3DFACE
8
0
10
-1
20
3
30
2
11
1
21
3
31
2
12
-1
22
5
32
2
13
1
23
5
33
2
0
3DFACE
8
0
10
-1
20
3
30
0
11
1
21
3
31
0
12
-1
22
5
32
0
13
1
23
5
33
0
0
3DFACE
8
0
10
-1
20
5
30
2
11
-1
21
3
31
2
12
-1
22
5
32
0
13
-1
23
3
33
0
0
3DFACE
8
0
10
1
20
5
30
2
11
1
21
3
31
2
12
1
22
5
32
0
13
1
23
3
33
0
0
3DFACE
8
0
10
-1
20
3
30
2
11
1
21
3
31
2
12
-1
22
3
32
0
13
1
23
3
33
0
0
3DFACE
8
0
10
-2
20
4
30
5
11
0
21
4
31
5
12
-2
22
4
32
3
13
0
23
4
33
3
0
3DFACE
8
0
10
-2
20
2
30
5
11
0
21
2
31
5
12
-2
22
4
32
5
13
0
23
4
33
5
0
3DFACE
8
0
10
-2
20
2
30
3
11
0
21
2
31
3
12
-2
22
4
32
3
13
0
23
4
33
3
0
3DFACE
8
0
10
-2
20
4
30
5
11
-2
21
2
31
5
12
-2
22
4
32
3
13
-2
23
2
33
3
0
3DFACE
8
0
10
0
20
4
30
5
11
0
21
2
31
5
12
0
22
4
32
3
13
0
23
2
33
3
0
3DFACE
8
0
10
-2
20
2
30
5
11
0
21
2
31
5
12
-2
22
2
32
3
13
0
23
2
33
3
0
3DFACE
8
0
10
-1
20
4
30
5
11
1
21
4
31
5
12
-1
22
4
32
3
13
1
23
4
33
3
0
3DFACE
8
0
10
-1
20
2
30
5
11
1
21
2
31
5
12
-1
22
4
32
5
13
1
23
4
33
5
0
3DFACE
8
0
10
-1
20
2
30
3
11
1
21
2
31
3
12
-1
22
4
32
3
13
1
23
4
33
3
0
3DFACE
8
0
10
-1
20
4
30
5
11
-1
21
2
31
5
12
-1
22
4
32
3
13
-1
23
2
33
3
0
3DFACE
8
0
10
1
20
4
30
5
11
1
21
2
31
5
12
1
22
4
32
3
13
1
23
2
33
3
0
3DFACE
8
0
10
-1
20
2
30
5
11
1
21
2
31
5
12
-1
22
2
32
3
13
1
23
2
33
3
0
3DFACE
8
0
10
0
20
4
30
5
11
2
21
4
31
5
12
0
22
4
32
3
13
2
23
4
33
3
0
3DFACE
8
0
10
0
20
2
30
5
11
2
21
2
31
5
12
0
22
4
32
5
13
2
23
4
33
5
0
3DFACE
8
0
10
0
20
2
30
3
11
2
21
2
31
3
12
0
22
4
32
3
13
2
23
4
33
3
0
3DFACE
8
0
10
0
20
4
30
5
11
0
21
2
31
5
12
0
22
4
32
3
13
0
23
2
33
3
0
3DFACE
8
0
10
2
20
4
30
5
11
2
21
2
31
5
12
2
22
4
32
3
13
2
23
2
33
3
0
3DFACE
8
0
10
0
20
2
30
5
11
2
21
2
31
5
12
0
22
2
32
3
13
2
23
2
33
3
0
3DFACE
8
0
10
-2
20
5
30
-3
11
0
21
5
31
-3
12
-2
22
5
32
-5
13
0
23
5
33
-5
0
3DFACE
8
0
10
-2
20
3
30
-3
11
0
21
3
31
-3
12
-2
22
5
32
-3
13
0
23
5
33
-3
0
3DFACE
8
0
10
-2
20
3
30
-5
11
0
21
3
31
-5
12
-2
22
5
32
-5
13
0
23
5
33
-5
0
3DFACE
8
0
10
-2
20
5
30
-3
11
-2
21
3
31
-3
12
-2
22
5
32
-5
13
-2
23
3
33
-5
0
3DFACE
8
0
10
0
20
5
30
-3
11
0
21
3
31
-3
12
0
22
5
32
-5
13
0
23
3
33
-5
0
3DFACE
8
0
10
-2
20
3
30
-3
11
0
21
3
31
-3
12
-2
22
3
32
-5
13
0
23
3
33
-5
0
3DFACE
8
0
10
-1
20
5
30
-3
11
1
21
5
31
-3
12
-1
22
5
32
-5
13
1
23
5
33
-5
0
3DFACE
8
0
10
-1
20
3
30
-3
11
1
21
3
31
-3
12
-1
22
5
32
-3
13
1
23
5
33
-3
0
3DFACE
8
0
10
-1
20
3
30
-5
11
1
21
3
31
-5
12
-1
22
5
32
-5
13
1
23
5
33
-5
0
3DFACE
8
0
10
-1
20
5
30
-3
11
-1
21
3
31
-3
12
-1
22
5
32
-5
13
-1
23
3
33
-5
0
3DFACE
8
0
10
1
20
5
30
-3
11
1
21
3
31
-3
12
1
22
5
32
-5
13
1
23
3
33
-5
0
3DFACE
8
0
10
-1
20
3
30
-3
11
1
21
3
31
-3
12
-1
22
3
32
-5
13
1
23
3
33
-5
0
3DFACE
8
0
10
0
20
5
30
-3
11
2
21
5
31
-3
12
0
22
5
32
-5
13
2
23
5
33
-5
0
3DFACE
8
0
10
0
20
3
30
-3
11
2
21
3
31
-3
12
0
22
5
32
-3
13
2
23
5
33
-3
0
3DFACE
8
0
10
0
20
3
30
-5
11
2
21
3
31
-5
12
0
22
5
32
-5
13
2
23
5
33
-5
0
3DFACE
8
0
10
0
20
5
30
-3
11
0
21
3
31
-3
12
0
22
5
32
-5
13
0
23
3
33
-5
0
3DFACE
8
0
10
2
20
5
30
-3
11
2
21
3
31
-3
12
2
22
5
32
-5
13
2
23
3
33
-5
0
3DFACE
8
0
10
0
20
3
30
-3
11
2
21
3
31
-3
12
0
22
3
32
-5
13
2
23
3
33
-5
0
3DFACE
8
0
10
1
20
4
30
-2
11
3
21
4
31
-2
12
1
22
4
32
-4
13
3
23
4
33
-4
0
3DFACE
8
0
10
1
20
2
30
-2
11
3
21
2
31
-2
12
1
22
4
32
-2
13
3
23
4
33
-2
0
3DFACE
8
0
10
1
20
2
30
-4
11
3
21
2
31
-4
12
1
22
4
32
-4
13
3
23
4
33
-4
0
3DFACE
8
0
10
1
20
4
30
-2
11
1
21
2
31
-2
12
1
22
4
32
-4
13
1
23
2
33
-4
0
3DFACE
8
0
10
3
20
4
30
-2
11
3
21
2
31
-2
12
3
22
4
32
-4
13
3
23
2
33
-4
0
3DFACE
8
0
10
1
20
2
30
-2
11
3
21
2
31
-2
12
1
22
2
32
-4
13
3
23
2
33
-4
0
3DFACE
8
0
10
1
20
4
30
-1
11
3
21
4
31
-1
12
1
22
4
32
-3
13
3
23
4
33
-3
0
3DFACE
8
0
10
1
20
2
30
-1
11
3
21
2
31
-1
12
1
22
4
32
-1
13
3
23
4
33
-1
0
3DFACE
8
0
10
1
20
2
30
-3
11
3
21
2
31
-3
12
1
22
4
32
-3
13
3
23
4
33
-3
0
3DFACE
8
0
10
1
20
4
30
-1
11
1
21
2
31
-1
12
1
22
4
32
-3
13
1
23
2
33
-3
0
3DFACE
8
0
10
3
20
4
30
-1
11
3
21
2
31
-1
12
3
22
4
32
-3
13
3
23
2
33
-3
0
3DFACE
8
0
10
1
20
2
30
-1
11
3
21
2
31
-1
12
1
22
2
32
-3
13
3
23
2
33
-3
0
3DFACE
8
0
10
1
20
4
30
0
11
3
21
4
31
0
12
1
22
4
32
-2
13
3
23
4
33
-2
0
3DFACE
8
0
10
1
20
2
30
0
11
3
21
2
31
0
12
1
22
4
32
0
13
3
23
4
33
0
0
3DFACE
8
0
10
1
20
2
30
-2
11
3
21
2
31
-2
12
1
22
4
32
-2
13
3
23
4
33
-2
0
3DFACE
8
0
10
1
20
4
30
0
11
1
21
2
31
0
12
1
22
4
32
-2
13
1
23
2
33
-2
0
3DFACE
8
0
10
3
20
4
30
0
11
3
21
2
31
0
12
3
22
4
32
-2
13
3
23
2
33
-2
0
3DFACE
8
0
10
1
20
2
30
0
11
3
21
2
31
0
12
1
22
2
32
-2
13
3
23
2
33
-2
0
3DFACE
8
0
10
1
20
4
30
1
11
3
21
4
31
1
12
1
22
4
32
-1
13
3
23
4
33
-1
0
3DFACE
8
0
10
1
20
2
30
1
11
3
21
2
31
1
12
1
22
4
32
1
13
3
23
4
33
1
0
3DFACE
8
0
10
1
20
2
30
-1
11
3
21
2
31
-1
12
1
22
4
32
-1
13
3
23
4
33
-1
0
3DFACE
8
0
10
1
20
4
30
1
11
1
21
2
31
1
12
1
22
4
32
-1
13
1
23
2
33
-1
0
3DFACE
8
0
10
3
20
4
30
1
11
3
21
2
31
1
12
3
22
4
32
-1
13
3
23
2
33
-1
0
3DFACE
8
0
10
1
20
2
30
1
11
3
21
2
31
1
12
1
22
2
32
-1
13
3
23
2
33
-1
0
3DFACE
8
0
10
1
20
4
30
2
11
3
21
4
31
2
12
1
22
4
32
0
13
3
23
4
33
0
0
3DFACE
8
0
10
1
20
2
30
2
11
3
21
2
31
2
12
1
22
4
32
2
13
3
23
4
33
2
0
3DFACE
8
0
10
1
20
2
30
0
11
3
21
2
31
0
12
1
22
4
32
0
13
3
23
4
33
0
0
3DFACE
8
0
10
1
20
4
30
2
11
1
21
2
31
2
12
1
22
4
32
0
13
1
23
2
33
0
0
3DFACE
8
0
10
3
20
4
30
2
11
3
21
2
31
2
12
3
22
4
32
0
13
3
23
2
33
0
0
3DFACE
8
0
10
1
20
2
30
2
11
3
21
2
31
2
12
1
22
2
32
0
13
3
23
2
33
0
0
3DFACE
8
0
10
1
20
4
30
3
11
3
21
4
31
3
12
1
22
4
32
1
13
3
23
4
33
1
0
3DFACE
8
0
10
1
20
2
30
3
11
3
21
2
31
3
12
1
22
4
32
3
13
3
23
4
33
3
0
3DFACE
8
0
10
1
20
2
30
1
11
3
21
2
31
1
12
1
22
4
32
1
13
3
23
4
33
1
0
3DFACE
8
0
10
1
20
4
30
3
11
1
21
2
31
3
12
1
22
4
32
1
13
1
23
2
33
1
0
3DFACE
8
0
10
3
20
4
30
3
11
3
21
2
31
3
12
3
22
4
32
1
13
3
23
2
33
1
0
3DFACE
8
0
10
1
20
2
30
3
11
3
21
2
31
3
12
1
22
2
32
1
13
3
23
2
33
1
0
3DFACE
8
0
10
1
20
4
30
4
11
3
21
4
31
4
12
1
22
4
32
2
13
3
23
4
33
2
0
3DFACE
8
0
10
1
20
2
30
4
11
3
21
2
31
4
12
1
22
4
32
4
13
3
23
4
33
4
0
3DFACE
8
0
10
1
20
2
30
2
11
3
21
2
31
2
12
1
22
4
32
2
13
3
23
4
33
2
0
3DFACE
8
0
10
1
20
4
30
4
11
1
21
2
31
4
12
1
22
4
32
2
13
1
23
2
33
2
0
3DFACE
8
0
10
3
20
4
30
4
11
3
21
2
31
4
12
3
22
4
32
2
13
3
23
2
33
2
0
3DFACE
8
0
10
1
20
2
30
4
11
3
21
2
31
4
12
1
22
2
32
2
13
3
23
2
33
2
0
3DFACE
8
0
10
-3
20
4
30
-2
11
-1
21
4
31
-2
12
-3
22
4
32
-4
13
-1
23
4
33
-4
0
3DFACE
8
0
10
-3
20
2
30
-2
11
-1
21
2
31
-2
12
-3
22
4
32
-2
13
-1
23
4
33
-2
0
3DFACE
8
0
10
-3
20
2
30
-4
11
-1
21
2
31
-4
12
-3
22
4
32
-4
13
-1
23
4
33
-4
0
3DFACE
8
0
10
-3
20
4
30
-2
11
-3
21
2
31
-2
12
-3
22
4
32
-4
13
-3
23
2
33
-4
0
3DFACE
8
0
10
-1
20
4
30
-2
11
-1
21
2
31
-2
12
-1
22
4
32
-4
13
-1
23
2
33
-4
0
3DFACE
8
0
10
-3
20
2
30
-2
11
-1
21
2
31
-2
12
-3
22
2
32
-4
13
-1
23
2
33
-4
0
3DFACE
8
0
10
-3
20
4
30
-1
11
-1
21
4
31
-1
12
-3
22
4
32
-3
13
-1
23
4
33
-3
0
3DFACE
8
0
10
-3
20
2
30
-1
11
-1
21
2
31
-1
12
-3
22
4
32
-1
13
-1
23
4
33
-1
0
3DFACE
8
0
10
-3
20
2
30
-3
11
-1
21
2
31
-3
12
-3
22
4
32
-3
13
-1
23
4
33
-3
0
3DFACE
8
0
10
-3
20
4
30
-1
11
-3
21
2
31
-1
12
-3
22
4
32
-3
13
-3
23
2
33
-3
0
3DFACE
8
0
10
-1
20
4
30
-1
11
-1
21
2
31
-1
12
-1
22
4
32
-3
13
-1
23
2
33
-3
0
3DFACE
8
0
10
-3
20
2
30
-1
11
-1
21
2
31
-1
12
-3
22
2
32
-3
13
-1
23
2
33
-3
0
3DFACE
8
0
10
-3
20
4
30
0
11
-1
21
4
31
0
12
-3
22
4
32
-2
13
-1
23
4
33
-2
0
3DFACE
8
0
10
-3
20
2
30
0
11
-1
21
2
31
0
12
-3
22
4
32
0
13
-1
23
4
33
0
0
3DFACE
8
0
10
-3
20
2
30
-2
11
-1
21
2
31
-2
12
-3
22
4
32
-2
13
-1
23
4
33
-2
0
3DFACE
8
0
10
-3
20
4
30
0
11
-3
21
2
31
0
12
-3
22
4
32
-2
13
-3
23
2
33
-2
0
3DFACE
8
0
10
-1
20
4
30
0
11
-1
21
2
31
0
12
-1
22
4
32
-2
13
-1
23
2
33
-2
0
3DFACE
8
0
10
-3
20
2
30
0
11
-1
21
2
31
0
12
-3
22
2
32
-2
13
-1
23
2
33
-2
0
3DFACE
8
0
10
-3
20
4
30
1
11
-1
21
4
31
1
12
-3
22
4
32
-1
13
-1
23
4
33
-1
0
3DFACE
8
0
10
-3
20
2
30
1
11
-1
21
2
31
1
12
-3
22
4
32
1
13
-1
23
4
33
1
0
3DFACE
8
0
10
-3
20
2
30
-1
11
-1
21
2
31
-1
12
-3
22
4
32
-1
13
-1
23
4
33
-1
0
3DFACE
8
0
10
-3
20
4
30
1
11
-3
21
2
31
1
12
-3
22
4
32
-1
13
-3
23
2
33
-1
0
3DFACE
8
0
10
-1
20
4
30
1
11
-1
21
2
31
1
12
-1
22
4
32
-1
13
-1
23
2
33
-1
0
3DFACE
8
0
10
-3
20
2
30
1
11
-1
21
2
31
1
12
-3
22
2
32
-1
13
-1
23
2
33
-1
0
3DFACE
8
0
10
-3
20
4
30
2
11
-1
21
4
31
2
12
-3
22
4
32
0
13
-1
23
4
33
0
0
3DFACE
8
0
10
-3
20
2
30
2
11
-1
21
2
31
2
12
-3
22
4
32
2
13
-1
23
4
33
2
0
3DFACE
8
0
10
-3
20
2
30
0
11
-1
21
2
31
0
12
-3
22
4
32
0
13
-1
23
4
33
0
0
3DFACE
8
0
10
-3
20
4
30
2
11
-3
21
2
31
2
12
-3
22
4
32
0
13
-3
23
2
33
0
0
3DFACE
8
0
10
-1
20
4
30
2
11
-1
21
2
31
2
12
-1
22
4
32
0
13
-1
23
2
33
0
0
3DFACE
8
0
10
-3
20
2
30
2
11
-1
21
2
31
2
12
-3
22
2
32
0
13
-1
23
2
33
0
0
3DFACE
8
0
10
-3
20
4
30
3
11
-1
21
4
31
3
12
-3
22
4
32
1
13
-1
23
4
33
1
0
3DFACE
8
0
10
-3
20
2
30
3
11
-1
21
2
31
3
12
-3
22
4
32
3
13
-1
23
4
33
3
0
3DFACE
8
0
10
-3
20
2
30
1
11
-1
21
2
31
1
12
-3
22
4
32
1
13
-1
23
4
33
1
0
3DFACE
8
0
10
-3
20
4
30
3
11
-3
21
2
31
3
12
-3
22
4
32
1
13
-3
23
2
33
1
0
3DFACE
8
0
10
-1
20
4
30
3
11
-1
21
2
31
3
12
-1
22
4
32
1
13
-1
23
2
33
1
0
3DFACE
8
0
10
-3
20
2
30
3
11
-1
21
2
31
3
12
-3
22
2
32
1
13
-1
23
2
33
1
0
3DFACE
8
0
10
-3
20
4
30
4
11
-1
21
4
31
4
12
-3
22
4
32
2
13
-1
23
4
33
2
0
3DFACE
8
0
10
-3
20
2
30
4
11
-1
21
2
31
4
12
-3
22
4
32
4
13
-1
23
4
33
4
0
3DFACE
8
0
10
-3
20
2
30
2
11
-1
21
2
31
2
12
-3
22
4
32
2
13
-1
23
4
33
2
0
3DFACE
8
0
10
-3
20
4
30
4
11
-3
21
2
31
4
12
-3
22
4
32
2
13
-3
23
2
33
2
0
3DFACE
8
0
10
-1
20
4
30
4
11
-1
21
2
31
4
12
-1
22
4
32
2
13
-1
23
2
33
2
0
3DFACE
8
0
10
-3
20
2
30
4
11
-1
21
2
31
4
12
-3
22
2
32
2
13
-1
23
2
33
2
0
ENDSEC
0
EOF
